<svg width="132" height="40" viewBox="0 0 132 40" fill="none" xmlns="http://www.w3.org/2000/svg">
<g clip-path="url(#clip0_1597_8037)">
<path fill-rule="evenodd" clip-rule="evenodd" d="M132 12.9652C132 16.0154 131.065 18.621 129.195 20.7888H129.202C128.014 22.1646 126.552 23.2 124.802 23.888C123.094 24.5619 121.147 24.8952 118.947 24.8952H113.57C112.867 24.8952 112.297 24.3324 112.297 23.6375V2.28608C112.297 1.59118 112.867 1.0284 113.57 1.0284H118.947C120.95 1.0284 122.757 1.32033 124.366 1.89684C126.004 2.48046 127.431 3.36287 128.633 4.53722C129.758 5.64195 130.601 6.89963 131.163 8.31688C131.719 9.72041 132 11.27 132 12.9652ZM107.897 24.895H96.3273C95.6243 24.895 95.0549 24.3322 95.0549 23.6373V2.28608C95.0549 1.59118 95.6243 1.0284 96.3273 1.0284H107.897C108.6 1.0284 109.17 1.59118 109.17 2.28608V3.99527C109.17 4.69017 108.6 5.25295 107.897 5.25295H99.7012V9.5677H107.553C108.256 9.5677 108.832 10.1305 108.832 10.8251V12.5346C108.832 13.2363 108.256 13.7991 107.553 13.7991H99.7012V20.6707H107.897C108.6 20.6707 109.17 21.2334 109.17 21.9283V23.6375C109.17 24.3324 108.6 24.895 107.897 24.895ZM91.0834 24.895H89.1435C88.4547 24.895 87.8992 24.3599 87.8712 23.6932L86.3739 12.2566L80.2867 25.0202C79.9916 25.6526 79.2323 25.9164 78.5995 25.6247C78.3183 25.4928 78.1078 25.2773 77.988 25.0202L71.9149 12.2566L70.4035 23.7973C70.3262 24.4297 69.7781 24.8952 69.1453 24.8952H67.2054C66.5027 24.8952 65.9333 24.3324 65.9333 23.6375C65.9333 23.5473 65.9403 23.4569 65.9614 23.3735L68.8716 1.26469C68.9628 0.576656 69.6026 0.0974567 70.2984 0.180796C70.7624 0.2433 71.1279 0.542095 71.3034 0.931091L79.1411 17.5023L87.0065 0.896285C87.3018 0.264135 88.0542 0.000146195 88.6937 0.291833C89.1016 0.47959 89.3543 0.854616 89.4108 1.26469L92.3419 23.478C92.4331 24.166 91.9414 24.791 91.2451 24.8815C91.1962 24.8883 91.1397 24.895 91.0834 24.895ZM127.235 12.9652C127.235 11.7563 127.045 10.6864 126.665 9.75522C126.292 8.838 125.737 8.03917 124.992 7.35113C124.233 6.65648 123.347 6.13536 122.335 5.78779C121.288 5.4336 120.086 5.25295 118.729 5.25295H116.951V20.6707H118.729C120.233 20.6707 121.534 20.4763 122.638 20.0802C123.699 19.698 124.585 19.1353 125.301 18.3847L125.308 18.3779C125.948 17.7109 126.426 16.9395 126.742 16.0642C127.073 15.1678 127.235 14.1325 127.235 12.9652Z" fill="#31A128"/>
<path fill-rule="evenodd" clip-rule="evenodd" d="M64.3517 3.24438L60.2465 9.87988C59.8951 10.4427 59.1641 10.6441 58.5737 10.3385L57.5473 9.87988C56.9148 9.58819 56.6408 8.85162 56.9148 8.21947L60.1622 1.12537C60.4506 0.492973 61.2027 0.215013 61.8422 0.500081C61.8705 0.506944 61.9054 0.527779 61.9337 0.541751L63.8314 1.46583C64.464 1.77149 64.7172 2.52889 64.408 3.14732C64.3938 3.18188 64.3727 3.21669 64.3517 3.24438Z" fill="#009EE0"/>
<path fill-rule="evenodd" clip-rule="evenodd" d="M55.5021 20.045C55.5021 21.3791 55.0732 22.5395 54.2018 23.5261C54.1946 23.5401 54.1805 23.5469 54.1735 23.5612C53.5972 24.1999 52.8942 24.6796 52.0509 24.9992C51.2425 25.3047 50.3356 25.4576 49.3165 25.4576C48.7962 25.4576 48.2901 25.402 47.7981 25.298C47.292 25.187 46.8281 25.0201 46.3852 24.7978H46.3783C45.7246 24.457 45.1411 23.9987 44.642 23.4082C44.1641 22.852 43.7634 22.1853 43.447 21.4071C43.201 20.7818 43.4752 20.0732 44.0798 19.7952L45.5418 19.0309C46.1675 18.7042 46.9407 18.9405 47.264 19.5521C47.3062 19.6354 47.3411 19.7119 47.3622 19.7952C47.4537 20.0523 47.5591 20.2815 47.6856 20.483C47.8123 20.6776 47.9529 20.8445 48.1215 20.9901C48.1495 21.011 48.1706 21.0318 48.1917 21.0526C48.3534 21.1848 48.5222 21.2889 48.7119 21.3586C48.9368 21.4419 49.2039 21.4767 49.5062 21.4767C50.0686 21.4767 50.4762 21.3446 50.7153 21.0732C50.7222 21.0595 50.7364 21.0524 50.7433 21.0387C50.9402 20.8164 51.0386 20.5033 51.0386 20.1075C51.0386 19.5726 50.6379 19.1557 49.8295 18.8569C49.1337 18.6415 48.7471 18.5304 48.6628 18.5025C48.4449 18.4331 48.1778 18.3498 47.8755 18.2454C47.3272 18.0718 46.8492 17.8632 46.4345 17.634C45.9634 17.384 45.5768 17.099 45.2676 16.7933C45.2465 16.7725 45.2254 16.7516 45.2044 16.7308C44.8036 16.321 44.4944 15.8552 44.2906 15.3341C44.0726 14.7993 43.9672 14.2157 43.9672 13.5833C43.9672 12.8538 44.1078 12.1729 44.389 11.5545C44.6702 10.9292 45.0848 10.3801 45.6403 9.92151C46.1675 9.47687 46.7718 9.14351 47.4396 8.92119C48.0863 8.70574 48.7893 8.60156 49.5342 8.60156C50.0123 8.60156 50.4832 8.6501 50.933 8.74741C51.397 8.84472 51.8257 8.99742 52.2123 9.19891C52.2406 9.21288 52.2686 9.22685 52.2969 9.24058C52.8379 9.53251 53.316 9.90778 53.7448 10.3733C54.1735 10.8387 54.539 11.3878 54.8482 12.0268C55.1436 12.6384 54.8976 13.3678 54.3 13.6806L52.9153 14.4172C52.2897 14.7436 51.5237 14.5074 51.1931 13.896C51.1721 13.8612 51.1582 13.8264 51.144 13.7916L51.1368 13.7987C51.0456 13.5764 50.9402 13.3887 50.8207 13.2497C50.7081 13.1038 50.5747 12.9857 50.4269 12.8815C50.2865 12.7773 50.1249 12.7077 49.9491 12.6523C49.7804 12.6035 49.5905 12.5759 49.3797 12.5759C49.0422 12.5759 48.7821 12.6592 48.6065 12.833C48.5222 12.9092 48.4659 12.9857 48.4307 13.0761C48.3886 13.1663 48.3744 13.2845 48.3744 13.4303C48.3744 13.5901 48.3955 13.7154 48.4449 13.7987C48.494 13.8821 48.5713 13.9514 48.6839 14.021C48.7399 14.0419 48.9088 14.1044 49.2039 14.2017C49.5905 14.3407 50.1177 14.5213 50.7924 14.7368C51.4042 14.9312 51.9594 15.1535 52.4444 15.3966C52.9716 15.6538 53.4073 15.9317 53.7589 16.2305C53.78 16.2445 53.7939 16.2582 53.808 16.2722C54.3632 16.7377 54.785 17.2936 55.0662 17.9189C55.3615 18.565 55.5021 19.2739 55.5021 20.045Z" fill="#FFCB00"/>
<path fill-rule="evenodd" clip-rule="evenodd" d="M40.1293 24.9019H38.4001C37.9503 24.9019 37.5496 24.6659 37.3175 24.3114C37.1769 24.3948 37.0363 24.4784 36.896 24.5617C36.3616 24.8534 35.8064 25.0688 35.2229 25.2216C34.6394 25.3745 34.0562 25.4512 33.4586 25.4512C32.369 25.4512 31.3498 25.2774 30.408 24.9367C29.466 24.5894 28.5943 24.0752 27.8212 23.3805C27.8142 23.3734 27.8001 23.3665 27.7932 23.3526C26.9357 22.5675 26.2818 21.6365 25.853 20.5666C25.4243 19.5035 25.2135 18.3223 25.2135 17.023C25.2135 15.8418 25.4032 14.7439 25.7828 13.7433C26.1694 12.7288 26.7529 11.8118 27.5189 11.0128C28.2993 10.2068 29.1989 9.60212 30.2253 9.19229C31.2233 8.79618 32.3268 8.5947 33.5218 8.5947C34.5271 8.5947 35.455 8.76848 36.2983 9.12292L36.3053 9.12978V9.12292C36.5443 9.22709 36.7764 9.34524 37.0013 9.47025V1.25744C37.0013 0.562783 37.5776 0 38.2806 0H40.1293C40.8323 0 41.4016 0.562783 41.4016 1.25744V23.6445C41.4016 24.3391 40.8323 24.9019 40.1293 24.9019ZM37.1209 17.023C37.1209 16.3558 37.0294 15.7444 36.8466 15.2025C36.6708 14.6674 36.4037 14.188 36.0524 13.7642C35.7221 13.3612 35.3494 13.0624 34.9417 12.8678C34.5271 12.6734 34.0562 12.5761 33.5218 12.5761C32.8962 12.5761 32.3479 12.6871 31.8842 12.9166C31.4272 13.1389 31.0265 13.4722 30.6892 13.924C30.3728 14.3546 30.1338 14.8204 29.9793 15.3206C29.8176 15.8346 29.7402 16.4045 29.7402 17.023C29.7402 17.7036 29.8315 18.3221 30.0142 18.8711C30.19 19.406 30.4571 19.8785 30.8015 20.2955C31.1249 20.6913 31.5045 20.9833 31.9333 21.1708C32.369 21.372 32.8823 21.4696 33.4586 21.4696C34.021 21.4696 34.5129 21.3723 34.9417 21.1916C35.3565 21.011 35.7359 20.7333 36.0665 20.358C36.4109 19.9687 36.6708 19.5172 36.8466 18.9893C37.0294 18.4262 37.1209 17.7733 37.1209 17.023Z" fill="#E30079"/>
<path fill-rule="evenodd" clip-rule="evenodd" d="M23.3298 5.91973C23.3298 6.28789 23.2593 6.63546 23.1187 6.96882C22.9784 7.30242 22.7674 7.60121 22.4934 7.85123C21.952 8.33754 21.3333 8.58093 20.6306 8.58093C20.2931 8.58093 19.9628 8.52529 19.6394 8.40029C19.3161 8.28214 19.021 8.10149 18.7609 7.8652C18.4797 7.60808 18.2758 7.30928 18.1352 6.96882C18.0016 6.64232 17.9384 6.295 17.9384 5.91973C17.9384 5.58612 17.9946 5.25963 18.1211 4.94C18.2406 4.62037 18.4234 4.33555 18.6624 4.07842C18.9226 3.80047 19.2248 3.59898 19.5762 3.46C19.9065 3.32813 20.2579 3.26562 20.6306 3.26562C20.9961 3.26562 21.3405 3.32102 21.6567 3.44627C22.0083 3.58501 22.3034 3.77277 22.5566 4.02989C22.8167 4.27991 23.0064 4.57184 23.1401 4.9123C23.2665 5.22483 23.3298 5.56529 23.3298 5.91973ZM21.5585 24.909H19.7096C18.9997 24.909 18.4303 24.3462 18.4303 23.6513V11.0752C18.4303 10.3803 18.9997 9.81754 19.7096 9.81754H21.5585C22.2684 9.81754 22.8378 10.3803 22.8378 11.0752V23.6516C22.8378 24.3462 22.2684 24.909 21.5585 24.909Z" fill="#F07C00"/>
<path fill-rule="evenodd" clip-rule="evenodd" d="M15.8503 24.902H13.0457C12.645 24.902 12.2867 24.7213 12.0546 24.4365L4.65286 16.4948V23.6445C4.65286 24.3392 4.08351 24.902 3.38076 24.902H1.28589C0.583138 24.902 0.0137939 24.3392 0.0137939 23.6445V2.29284C0.0137939 1.59794 0.583138 1.03516 1.28589 1.03516H3.38076C4.08351 1.03516 4.65286 1.59794 4.65286 2.29284V9.08815L12.125 1.41729C12.3779 1.16727 12.7082 1.03516 13.0457 1.03516H15.6326C16.3353 1.03516 16.9047 1.59794 16.9047 2.29284C16.9047 2.66811 16.736 3.00147 16.4759 3.23776L7.1482 12.6526L16.7713 22.7898C17.2563 23.2901 17.228 24.0892 16.7219 24.5617C16.4759 24.7909 16.1598 24.902 15.8503 24.902Z" fill="#009EE0"/>
<path fill-rule="evenodd" clip-rule="evenodd" d="M130.229 34.1778V32.8716H129.533C128.872 32.8716 128.542 33.0939 128.542 33.5245C128.542 33.9623 128.872 34.1778 129.533 34.1778H130.229ZM130.229 35.2756H129.842L128.261 37.2905C128.141 37.4503 128.036 37.5545 127.951 37.6033C127.839 37.6724 127.691 37.7003 127.508 37.7003C127.276 37.7003 127.087 37.6307 126.946 37.4849C126.805 37.3319 126.742 37.2 126.742 37.0819C126.742 36.8387 126.827 36.6164 127.009 36.4145L128.113 35.1778C127.22 34.9974 126.77 34.4481 126.77 33.5312C126.77 32.3637 127.6 31.7663 129.258 31.7663H130.974C131.367 31.7663 131.641 31.8565 131.782 32.0303C131.909 32.183 131.965 32.4681 131.965 32.8711V36.5816C131.965 37.3248 131.677 37.7001 131.093 37.7001C130.798 37.7001 130.573 37.5822 130.425 37.3456C130.292 37.1444 130.229 36.8939 130.229 36.5816V35.2756H130.229ZM122.525 35.206V36.5054H123.228C123.888 36.5054 124.219 36.2899 124.219 35.8593C124.219 35.5813 124.113 35.4007 123.902 35.2965C123.769 35.234 123.544 35.206 123.228 35.206H122.525ZM122.525 34.0944C123.516 34.0944 124.142 34.1153 124.401 34.1569C125.196 34.282 125.688 34.5876 125.885 35.0813C125.969 35.2967 126.011 35.5539 126.011 35.8595C126.011 36.5613 125.744 37.0476 125.203 37.3116C124.816 37.5202 124.219 37.6172 123.417 37.6172H121.78C121.112 37.6172 120.782 37.2422 120.782 36.5056V32.8718C120.782 32.1352 121.077 31.7671 121.66 31.7671C122.237 31.7671 122.525 32.1352 122.525 32.8718V34.0944ZM116.332 35.2685V36.5679H117.035C117.696 36.5679 118.026 36.3524 118.026 35.9218C118.026 35.6507 117.921 35.4632 117.71 35.3659C117.576 35.2965 117.352 35.2685 117.035 35.2685H116.332ZM115.587 37.6797C114.919 37.6797 114.589 37.3045 114.589 36.5679V32.8716C114.589 32.135 114.919 31.7668 115.587 31.7668H117.147C117.935 31.7668 118.518 31.871 118.891 32.0725C119.397 32.3505 119.65 32.8299 119.65 33.5245C119.65 34.0182 119.404 34.3932 118.926 34.6433C119.523 34.9558 119.819 35.3798 119.819 35.9218C119.819 36.6235 119.552 37.1098 119.01 37.3809C118.624 37.5824 118.026 37.6797 117.225 37.6797H115.587ZM116.332 32.8713V34.1709H117.035C117.316 34.1709 117.52 34.1359 117.647 34.0663C117.822 33.9692 117.907 33.7885 117.907 33.5243C117.907 33.0936 117.598 32.8713 116.965 32.8713H116.332ZM109.577 34.7058C109.577 35.095 109.668 35.4355 109.844 35.7203C110.062 36.061 110.357 36.2274 110.73 36.2274C111.102 36.2274 111.398 36.0608 111.615 35.7203C111.798 35.4355 111.889 35.095 111.889 34.7058C111.889 34.3307 111.791 33.9971 111.608 33.7192C111.39 33.3927 111.095 33.2331 110.73 33.2331C110.357 33.2331 110.062 33.3927 109.844 33.7192C109.668 33.9903 109.577 34.3236 109.577 34.7058ZM107.771 34.7266C107.771 33.865 108.044 33.1356 108.6 32.5519C109.148 31.9543 109.858 31.6624 110.73 31.6624C111.615 31.6624 112.333 31.9543 112.867 32.5448C113.408 33.1289 113.682 33.8582 113.682 34.7266C113.682 35.5953 113.415 36.3179 112.881 36.8944C112.326 37.492 111.609 37.7839 110.73 37.7839C109.858 37.7839 109.141 37.4851 108.579 36.8807C108.045 36.3037 107.771 35.5879 107.771 34.7266ZM103.089 34.8379C103.089 35.22 103.181 35.5396 103.363 35.7825C103.574 36.0674 103.869 36.2063 104.249 36.2063C104.635 36.2063 104.931 36.0534 105.141 35.7409C105.324 35.47 105.416 35.1364 105.416 34.7472C105.416 34.3722 105.317 34.0454 105.128 33.7814C104.924 33.4692 104.628 33.3162 104.249 33.3162C103.933 33.3162 103.658 33.4204 103.433 33.6287C103.202 33.8373 103.089 34.24 103.089 34.8379ZM103.131 37.2905H103.089V38.7774C103.089 39.5902 102.815 40 102.259 40C101.669 40 101.374 39.5833 101.374 38.7565V33.0105C101.374 32.1767 101.669 31.7668 102.259 31.7668C102.604 31.7668 102.885 31.9475 103.089 32.3156C103.441 31.9195 103.926 31.7252 104.53 31.7252C105.332 31.7252 105.992 32.0377 106.491 32.663C106.955 33.2397 107.187 33.9275 107.187 34.7266C107.187 35.3242 107.047 35.873 106.765 36.3733C106.477 36.9015 106.07 37.2905 105.542 37.5545C105.212 37.7143 104.868 37.7976 104.509 37.7976C103.982 37.7976 103.525 37.6307 103.131 37.2905ZM96.3483 34.7058C96.3483 35.095 96.4396 35.4355 96.6223 35.7203C96.8403 36.061 97.1354 36.2274 97.5078 36.2274C97.8805 36.2274 98.1756 36.0608 98.3936 35.7203C98.5692 35.4355 98.6607 35.095 98.6607 34.7058C98.6607 34.3307 98.5692 33.9971 98.3794 33.7192C98.1687 33.3927 97.8733 33.2331 97.5076 33.2331C97.1351 33.2331 96.84 33.3927 96.6221 33.7192C96.4396 33.9903 96.3483 34.3236 96.3483 34.7058ZM94.5488 34.7266C94.5488 33.865 94.823 33.1356 95.3713 32.5519C95.9263 31.9543 96.6365 31.6624 97.5078 31.6624C98.3936 31.6624 99.1107 31.9543 99.6518 32.5448C100.193 33.1289 100.46 33.8582 100.46 34.7266C100.46 35.5953 100.193 36.3179 99.6657 36.8944C99.1107 37.492 98.3867 37.7839 97.5078 37.7839C96.6362 37.7839 95.9196 37.4851 95.3569 36.8807C94.8158 36.3037 94.5488 35.5879 94.5488 34.7266ZM92.7845 37.617H88.806C88.806 38.1104 88.7993 38.3952 88.7849 38.4717C88.7217 38.8122 88.532 38.9786 88.2225 38.9786C87.6812 38.9786 87.4144 38.7006 87.4144 38.1452V37.0473C87.4144 36.6929 87.4987 36.4706 87.6742 36.3941C87.822 36.3595 87.9765 36.3316 88.1382 36.3039C88.314 36.2274 88.3983 36.0122 88.3983 35.6578V33.5037C88.3983 32.8716 88.567 32.4198 88.9186 32.135C89.2347 31.8918 89.7198 31.7668 90.3876 31.7668H92.5598C92.9112 31.7668 93.1502 31.885 93.2767 32.1284C93.3749 32.3019 93.4173 32.5728 93.4173 32.9341V36.3456C93.9234 36.3456 94.1766 36.5887 94.1766 37.0753V38.1454C94.1766 38.7011 93.9095 38.9788 93.3682 38.9788C93.0659 38.9788 92.8831 38.8053 92.813 38.4577C92.7916 38.3673 92.7845 38.0896 92.7845 37.617ZM89.8252 36.3453H91.7021V33.1353H90.3945C90.1274 33.1353 89.994 33.2674 89.994 33.5243V35.6575C89.994 35.873 89.9377 36.1024 89.8252 36.3453ZM83.3164 34.7266C83.3164 34.3584 83.5973 34.1709 84.1456 34.1709C84.5394 34.1709 84.7923 34.1501 84.9052 34.1079C85.1298 34.0317 85.2421 33.8373 85.2421 33.5243C85.2421 33.2186 85.1439 33.0032 84.9612 32.8922C84.8208 32.8157 84.5885 32.7809 84.2651 32.7809C84.0119 32.7809 83.759 32.8228 83.4991 32.913C83.2177 33.0103 83.0069 33.0657 82.8661 33.0657C82.4373 33.0657 82.2268 32.8713 82.2268 32.4821C82.2268 31.9333 82.9509 31.6622 84.3988 31.6622C85.2072 31.6622 85.8045 31.7735 86.1983 32.0026C86.7183 32.2946 86.9784 32.802 86.9784 33.5243C86.9784 34.018 86.7394 34.393 86.2544 34.643C86.8309 34.9487 87.119 35.3727 87.119 35.9215C87.119 37.1584 86.2122 37.7837 84.3988 37.7837C82.845 37.7837 82.0721 37.492 82.0721 36.9012C82.0721 36.5468 82.2757 36.3662 82.6766 36.3662C82.8031 36.3662 83.028 36.4145 83.3513 36.5257C83.675 36.6299 84.0191 36.6787 84.399 36.6787C85.0175 36.6787 85.327 36.4284 85.327 35.9213C85.327 35.6919 85.2704 35.5252 85.1511 35.4279C85.0386 35.3234 84.8136 35.2752 84.4762 35.2681C84.0544 35.2612 83.7942 35.2404 83.696 35.2127C83.4429 35.1502 83.3164 34.9906 83.3164 34.7266ZM73.7285 34.8379C73.7285 35.22 73.8198 35.5396 74.0026 35.7825C74.2136 36.0674 74.5087 36.2063 74.8953 36.2063C75.2749 36.2063 75.5772 36.0534 75.781 35.7409C75.9635 35.47 76.055 35.1364 76.055 34.7472C76.055 34.3722 75.9635 34.0454 75.7738 33.7814C75.5628 33.4692 75.2677 33.3162 74.895 33.3162C74.5719 33.3162 74.2976 33.4204 74.0727 33.6287C73.8483 33.8373 73.7285 34.24 73.7285 34.8379ZM73.7776 37.2905H73.7285V38.7774C73.7285 39.5902 73.4543 40 72.8991 40C72.3087 40 72.0133 39.5833 72.0133 38.7565V33.0105C72.0133 32.1767 72.3087 31.7668 72.8991 31.7668C73.2435 31.7668 73.5245 31.9475 73.7285 32.3156C74.0871 31.9195 74.565 31.7252 75.1698 31.7252C75.9781 31.7252 76.6318 32.0377 77.1379 32.663C77.5949 33.2397 77.8268 33.9275 77.8268 34.7266C77.8268 35.3242 77.6862 35.873 77.405 36.3733C77.1168 36.9015 76.7089 37.2905 76.1817 37.5545C75.8517 37.7143 75.507 37.7976 75.1484 37.7976C74.6212 37.7976 74.1642 37.6307 73.7776 37.2905ZM67.9084 33.2395H67.1632C66.4322 33.2395 66.0665 32.9966 66.0665 32.51C66.0665 32.0097 66.4322 31.7666 67.1632 31.7666H70.3824C71.1134 31.7666 71.4789 32.0097 71.4789 32.51C71.4789 32.9963 71.1134 33.2395 70.3757 33.2395H69.6236V36.4497C69.6236 37.2765 69.3352 37.7006 68.7659 37.7006C68.1896 37.7006 67.9084 37.2768 67.9084 36.4497V33.2395ZM61.9266 35.2685V36.4429C61.9266 37.2765 61.6454 37.7006 61.076 37.7006C60.4856 37.7006 60.1905 37.2768 60.1905 36.4497V33.0105C60.1905 32.1767 60.4856 31.7668 61.076 31.7668C61.6454 31.7668 61.9266 32.1767 61.9266 33.0105V34.0665H63.8526V33.0105C63.8526 32.1767 64.1407 31.7668 64.7101 31.7668C65.2866 31.7668 65.5678 32.1767 65.5678 33.0105V36.4497C65.5678 37.2765 65.2866 37.7006 64.7101 37.7006C64.1407 37.7006 63.8526 37.2768 63.8526 36.4429V35.2685H61.9266ZM55.3474 34.0871H57.6458C57.6247 33.7885 57.5124 33.5451 57.2944 33.3576C57.0837 33.1701 56.8305 33.0728 56.5282 33.0728C56.219 33.0728 55.9589 33.163 55.7481 33.3508C55.5371 33.5385 55.4037 33.7814 55.3474 34.0871ZM55.3684 35.206C55.4037 35.5325 55.5443 35.7897 55.7902 35.9634C56.0362 36.1372 56.3316 36.2274 56.6899 36.2274C56.9852 36.2274 57.3366 36.1372 57.7584 35.9495C58.173 35.7617 58.4331 35.6713 58.5316 35.6713C58.9955 35.6713 59.2274 35.887 59.2274 36.3314C59.2274 36.5051 59.1642 36.6718 59.0307 36.8387C58.7986 37.151 58.4331 37.3876 57.927 37.5542C57.5052 37.693 57.0626 37.7628 56.5986 37.7628C55.734 37.7628 55.0171 37.4711 54.4405 36.8875C53.8643 36.3037 53.5761 35.5879 53.5761 34.7403C53.5761 33.8927 53.8501 33.177 54.4056 32.5796C54.9538 31.9752 55.6566 31.6761 56.5143 31.6761C56.9359 31.6761 57.3225 31.7529 57.6669 31.9058C58.1661 32.1281 58.5737 32.4686 58.8901 32.913C59.2063 33.3576 59.368 33.8373 59.368 34.3582C59.368 34.643 59.2626 34.8585 59.0518 35.0043C58.876 35.1364 58.637 35.2058 58.3419 35.2058H55.3684V35.206ZM48.8736 36.3453H50.7854V33.0174C50.7854 32.1835 51.0736 31.7666 51.6429 31.7666C52.2195 31.7666 52.5006 32.1833 52.5006 33.0174V36.3453C53.0068 36.3453 53.2597 36.5885 53.2597 37.075V38.1452C53.2597 38.7009 52.9926 38.9786 52.4513 38.9786C52.149 38.9786 51.9663 38.8051 51.8961 38.4575C51.875 38.3673 51.8681 38.0893 51.8681 37.6167H48.2338C47.8894 37.6167 47.6223 37.4849 47.4257 37.2209C47.2429 36.9777 47.1583 36.6858 47.1583 36.3453V33.0174C47.1583 32.1835 47.4395 31.7666 48.0161 31.7666C48.5854 31.7666 48.8736 32.1833 48.8736 33.0174V36.3453ZM39.6584 31.2734C39.1662 31.2734 38.7657 31.1484 38.4493 30.9053C38.1542 30.6756 38.0064 30.4258 38.0064 30.1545C38.0064 29.7932 38.1753 29.6196 38.5197 29.6196C38.7164 29.6196 38.8852 29.7238 39.0328 29.9322C39.1803 30.1405 39.3914 30.2518 39.6584 30.2518C39.9396 30.2518 40.1435 30.1407 40.2841 29.9322C40.4175 29.7236 40.5791 29.6196 40.7688 29.6196C41.1205 29.6196 41.296 29.7932 41.296 30.1545C41.296 30.516 41.1063 30.8011 40.7267 31.0092C40.4105 31.1832 40.052 31.2734 39.6584 31.2734ZM36.8677 36.4497V33.0105C36.8677 32.6353 36.9171 32.3505 37.0083 32.1558C37.1489 31.8987 37.3949 31.7668 37.7535 31.7668C38.1049 31.7668 38.3509 31.8918 38.4776 32.1492C38.5619 32.3296 38.611 32.6144 38.611 33.0108V34.9075L40.7056 32.3019C40.9868 31.9477 41.275 31.7668 41.5703 31.7668C41.9289 31.7668 42.1748 31.8918 42.3013 32.1492C42.3926 32.3296 42.435 32.6144 42.435 33.0108V36.45C42.435 36.8392 42.3926 37.1241 42.3013 37.3045C42.1748 37.5684 41.9289 37.7006 41.5772 37.7006C41.2189 37.7006 40.9727 37.5684 40.8462 37.3045C40.755 37.1241 40.7128 36.8392 40.7128 36.4429V34.6989L38.611 37.1723C38.3159 37.5268 38.0347 37.7006 37.7535 37.7006C37.1631 37.7006 36.8677 37.2765 36.8677 36.4497ZM32.0318 34.9072L34.1334 33.0105C34.1334 32.6144 34.1755 32.3296 34.2601 32.149C34.3935 31.8916 34.6395 31.7666 34.998 31.7666C35.3566 31.7666 35.6026 31.8916 35.7291 32.149C35.8206 32.3294 35.8627 32.6142 35.8627 33.0105V36.4497C35.8627 36.839 35.8206 37.1238 35.7291 37.3042C35.6026 37.5682 35.3635 37.7003 35.005 37.7003C34.6467 37.7003 34.4007 37.5682 34.274 37.3042C34.1896 37.1238 34.1475 36.839 34.1475 36.4426V34.7751L32.0387 36.4426C32.0387 36.8316 31.9896 37.1165 31.9053 37.3042C31.7717 37.5682 31.5326 37.7003 31.1813 37.7003C30.5836 37.7003 30.2885 37.2765 30.2885 36.4495V33.0103C30.2885 32.635 30.3376 32.3502 30.4291 32.1556C30.5697 31.8985 30.8157 31.7666 31.1743 31.7666C31.5326 31.7666 31.7717 31.8916 31.8981 32.149C31.9896 32.3294 32.0318 32.6142 32.0318 33.0105V34.9072ZM26.5067 35.234L26.2469 35.4284V36.4429C26.2469 37.2765 25.9585 37.7006 25.3822 37.7006C24.7987 37.7006 24.5106 37.2768 24.5106 36.4497V33.024C24.5106 32.1833 24.7987 31.7666 25.3822 31.7666C25.8251 31.7666 26.0921 32.0097 26.1906 32.5029C26.2327 32.6492 26.2469 33.0591 26.2469 33.7258L27.7369 32.2389C28.0461 31.9266 28.3484 31.7666 28.6366 31.7666C28.8406 31.7666 29.0093 31.8291 29.1568 31.9472C29.2974 32.0651 29.3676 32.2321 29.3676 32.4267C29.3676 32.7115 29.22 32.9824 28.925 33.2535L27.7511 34.3165L29.3817 36.1855C29.6138 36.4495 29.7261 36.7275 29.7261 37.0191C29.7261 37.2206 29.6418 37.3876 29.4732 37.5194C29.3043 37.6373 29.1147 37.7001 28.9039 37.7001C28.5594 37.7001 28.2572 37.5332 27.997 37.1858L26.5067 35.234ZM18.6835 34.7266C18.6835 33.8373 18.9575 33.1079 19.5057 32.538C20.054 31.9681 20.7781 31.6835 21.6849 31.6835C22.1628 31.6835 22.5776 31.7529 22.929 31.8918C23.4071 32.0933 23.6389 32.3921 23.6389 32.7882C23.6389 32.9897 23.5757 33.1633 23.4351 33.3025C23.3017 33.4486 23.1259 33.5179 22.9149 33.5179C22.7814 33.5179 22.6056 33.4694 22.3807 33.3858C22.1628 33.2956 21.9309 33.2539 21.6849 33.2539C21.2911 33.2539 20.9819 33.3998 20.7711 33.6983C20.5742 33.9623 20.4758 34.2959 20.4758 34.6989C20.4758 35.1227 20.5742 35.4563 20.7781 35.7134C21.0102 35.9914 21.3333 36.1301 21.7481 36.1301C21.9941 36.1301 22.226 36.0884 22.4301 36.0051C22.6408 35.9218 22.8167 35.8801 22.9501 35.8801C23.1539 35.8801 23.3156 35.9495 23.442 36.0956C23.5688 36.2414 23.632 36.4149 23.632 36.6167C23.632 36.964 23.386 37.2557 22.8938 37.4991C22.5424 37.6726 22.1067 37.7562 21.5795 37.7562C20.7007 37.7562 19.9908 37.4645 19.4636 36.8736C18.9436 36.3108 18.6835 35.5953 18.6835 34.7266ZM14.8877 33.2395H14.1426C13.4185 33.2395 13.053 32.9966 13.053 32.51C13.053 32.0097 13.4185 31.7666 14.1426 31.7666H17.362C18.1 31.7666 18.4655 32.0097 18.4655 32.51C18.4655 32.9963 18.093 33.2395 17.3548 33.2395H16.6027V36.4497C16.6027 37.2765 16.3215 37.7006 15.7452 37.7006C15.1759 37.7006 14.8877 37.2768 14.8877 36.4497V33.2395ZM8.89897 34.0871H11.2044C11.1833 33.7885 11.0638 33.5451 10.853 33.3576C10.635 33.1701 10.3821 33.0728 10.0798 33.0728C9.7706 33.0728 9.51047 33.163 9.29945 33.3508C9.08867 33.5385 8.95502 33.7814 8.89897 34.0871ZM8.92005 35.206C8.95502 35.5325 9.09562 35.7897 9.3416 35.9634C9.58784 36.1372 9.88987 36.2274 10.2415 36.2274C10.5366 36.2274 10.8952 36.1372 11.3098 35.9495C11.7246 35.7617 11.9847 35.6713 12.0901 35.6713C12.5469 35.6713 12.779 35.887 12.779 36.3314C12.779 36.5051 12.7158 36.6718 12.5821 36.8387C12.3572 37.151 11.9847 37.3876 11.4856 37.5542C11.0568 37.693 10.6139 37.7628 10.1572 37.7628C9.29251 37.7628 8.56843 37.4711 7.99214 36.8875C7.41585 36.3037 7.12746 35.5879 7.12746 34.7403C7.12746 33.8927 7.40172 33.177 7.95693 32.5796C8.50519 31.9752 9.2082 31.6761 10.0657 31.6761C10.4944 31.6761 10.881 31.7529 11.2254 31.9058C11.7177 32.1281 12.1253 32.4686 12.4415 32.913C12.7579 33.3576 12.9196 33.8373 12.9196 34.3582C12.9196 34.643 12.8142 34.8585 12.6032 35.0043C12.4276 35.1364 12.1886 35.2058 11.8932 35.2058H8.92005V35.206ZM5.36314 37.617H1.39187C1.39187 38.1104 1.38468 38.3952 1.37079 38.4717C1.30037 38.8122 1.11761 38.9786 0.808389 38.9786C0.267066 38.9786 0 38.7006 0 38.1452V37.0473C0 36.6929 0.0843105 36.4706 0.252932 36.3941C0.407666 36.3595 0.562401 36.3316 0.716887 36.3039C0.8927 36.2274 0.97701 36.0122 0.97701 35.6578V33.5037C0.97701 32.8716 1.15282 32.4198 1.49726 32.135C1.81342 31.8918 2.30564 31.7668 2.96624 31.7668H5.13823C5.48985 31.7668 5.73584 31.885 5.86231 32.1284C5.95356 32.3019 6.00291 32.5728 6.00291 32.9341V36.3456C6.50902 36.3456 6.76195 36.5887 6.76195 37.0753V38.1454C6.76195 38.7011 6.48794 38.9788 5.94662 38.9788C5.64434 38.9788 5.46159 38.8053 5.39835 38.4577C5.37727 38.3673 5.36314 38.0896 5.36314 37.617ZM2.40384 36.3453H4.28769V33.1353H2.98038C2.71331 33.1353 2.57965 33.2674 2.57965 33.5243V35.6575C2.57965 35.873 2.52336 36.1024 2.40384 36.3453Z" fill="#003288"/>
</g>
<defs>
<clipPath id="clip0_1597_8037">
<rect width="132" height="40" fill="white"/>
</clipPath>
</defs>
</svg>
