<svg width="16" height="16" viewBox="0 0 16 16" fill="none" xmlns="http://www.w3.org/2000/svg">
<path d="M9.9487 15.2342C11.2912 14.7663 12.4566 14.0153 13.456 13.0559C14.4935 12.06 15.4574 10.9624 15.8061 9.61131C16.1708 8.19795 16.005 6.7076 15.444 5.35151C14.8657 3.95361 13.8624 2.75905 12.5924 1.8434C11.2541 0.878461 9.71741 -0.0822239 8.02948 0.00559616C6.36691 0.0920963 5.04394 1.2704 3.79667 2.30103C2.70867 3.20006 1.96361 4.33331 1.31993 5.54978C0.665098 6.78733 -0.162753 8.05471 0.0278089 9.42369C0.218429 10.7931 1.41671 11.7813 2.33771 12.8614C3.28708 13.9747 4.04649 15.381 5.4918 15.8316C6.94489 16.2846 8.51345 15.7344 9.9487 15.2342Z" fill="#42A53B"/>
</svg>
