<?xml version="1.0" encoding="utf-8"?><svg viewBox="0 0 413 546" xmlns="http://www.w3.org/2000/svg"
	xmlns:xlink="http://www.w3.org/1999/xlink">
	<style>
		:root>svg {
			display: none
		}

		:root>svg:target {
			display: block
		}
	</style><svg viewBox="0 0 24 24" id="fb" xmlns="http://www.w3.org/2000/svg">
		<path
			d="M3 0h18c1.654 0 3 1.345 3 3v18c0 1.654-1.346 3-3 3h-4.5v-8.25h2.25l1.5-3.75H16.5V9c0-.761.568-.757 1.303-.751L18 8.25h1.5V4.5h-3A4.5 4.5 0 0012 9v3H9v3.75h3V24H3c-1.655 0-3-1.346-3-3V3c0-1.655 1.345-3 3-3z" /></svg><svg viewBox="0 0 80 64" id="i-allergy"
		xmlns="http://www.w3.org/2000/svg">
		<path
			d="M71.053 33.616c0-1.503-.4-2.903-1.126-3.94-.878-1.256-2.202-1.948-3.728-1.948H64.27l-.728-6.692c-.239-2.205-.072-2.462.67-3.193.279-.274.592-.548.925-.837 1.805-1.572 4.053-3.53 4.359-8.533a1.213 1.213 0 00-1.511-1.25c-.718.184-1.376.361-1.957.518-4.21 1.133-5.341 1.438-9.42-1.077a40.048 40.048 0 00-3.885-2.12 1.213 1.213 0 10-1.034 2.194 37.6 37.6 0 013.646 1.992c4.97 3.064 6.83 2.563 11.324 1.353l.2-.054c-.553 2.742-1.954 3.962-3.316 5.147-.344.3-.701.611-1.034.938-1.587 1.564-1.64 2.78-1.379 5.184l.681 6.26-2.457-.286c-9.267-1.076-13.918-1.616-25.53-4.652a42.436 42.436 0 01-1.39-.395c-1.853-.55-3.316-.986-5.888-.263-3.26.916-5.679 1.915-8.514 4.249.014-4.262.103-5.942.661-9.708.319-2.137 1.52-4.014 3.213-5.022 1.055-.628 2.779-1.206 5.003-.395.383.14.81.077 1.137-.165a96.62 96.62 0 001.22-.923c3.113-2.383 6.989-5.349 12.471-5.573a1.213 1.213 0 10-.1-2.424c-6.247.256-10.64 3.616-13.846 6.07-.237.182-.467.358-.692.528-2.229-.635-4.49-.359-6.434.797-2.312 1.377-3.947 3.9-4.371 6.75-.646 4.357-.688 6.005-.69 11.582H13.8c-1.526 0-2.85.692-3.728 1.947-.727 1.038-1.127 2.438-1.127 3.94 0 2.89 1.508 5.93 4.336 6.814a15.672 15.672 0 00-1.313 6.287c0 8.393 6.588 15.222 14.686 15.222 1.76 0 3.166-.46 4.296-.828 1.294-.422 2.064-.647 2.85-.355C36.082 61.605 38.052 62 40 62s3.917-.396 6.199-1.245c.786-.292 1.557-.067 2.85.355 1.13.369 2.536.828 4.296.828 8.098 0 14.686-6.829 14.686-15.222 0-2.18-.452-4.321-1.313-6.287 2.828-.883 4.335-3.925 4.335-6.813zm-59.68 0c0-1.01.244-1.916.688-2.55.429-.614.998-.912 1.74-.912h1.803v5.094c0 1.482-.039 1.53-.411 1.995-.188.234-.426.532-.718.975-2.264-.339-3.102-2.864-3.102-4.602zm41.972 25.896c-1.374 0-2.477-.36-3.543-.708-1.39-.454-2.829-.924-4.448-.323-2.004.745-3.705 1.093-5.354 1.093s-3.35-.347-5.355-1.094c-1.618-.6-3.056-.13-4.447.324-1.066.348-2.169.708-3.543.708-6.76 0-12.26-5.74-12.26-12.796 0-2.358.622-4.663 1.797-6.666.381-.65.666-1.005.895-1.29.753-.941.943-1.453.943-3.512v-5.79c3.27-3.107 5.603-4.157 9.173-5.16 1.897-.533 2.836-.254 4.54.252.432.129.922.274 1.469.417 11.776 3.079 16.484 3.626 25.863 4.715l2.895.337v5.229c0 2.06.19 2.57.944 3.512.228.285.513.64.894 1.29a13.178 13.178 0 011.797 6.666c0 7.056-5.5 12.796-12.26 12.796zm12.18-21.294c-.292-.443-.53-.74-.718-.975-.372-.465-.411-.513-.411-1.995v-5.094h1.802c.743 0 1.312.298 1.741.912.444.634.688 1.54.688 2.55 0 1.738-.838 4.264-3.102 4.602z"
			fill="#343D42" />
		<path
			d="M33.661 35.773a1.213 1.213 0 00-1.715-.029c-1.515 1.466-3.983 1.465-5.5 0a1.213 1.213 0 00-1.686 1.745 6.372 6.372 0 004.437 1.772 6.364 6.364 0 004.436-1.773 1.213 1.213 0 00.028-1.715zm22.124 0a1.213 1.213 0 00-1.715-.029c-1.517 1.467-3.984 1.467-5.5 0a1.213 1.213 0 00-1.687 1.744 6.365 6.365 0 004.437 1.775 6.365 6.365 0 004.437-1.775 1.213 1.213 0 00.028-1.715zm-6.993 11.428c-.67 0-1.213.544-1.213 1.213v.028c-2.145-.754-4.676-1.162-7.32-1.162-2.645 0-5.175.407-7.32 1.162v-.028a1.213 1.213 0 10-2.425 0v3.697a1.213 1.213 0 002.426 0v-1.07c4.204-1.796 10.433-1.796 14.64 0v1.07a1.213 1.213 0 102.425 0v-3.697c0-.67-.543-1.213-1.213-1.213z"
			fill="#343D42" />
		<path
			d="M20.41 45.533a1.216 1.216 0 00-2.43 0c0 .67.543 1.213 1.213 1.213h.007c.67 0 1.21-.543 1.21-1.213zm5.11 7.593a1.213 1.213 0 100 2.426h.007c.67 0 1.21-.543 1.21-1.213s-.547-1.213-1.217-1.213zm-.261-5.576h.007c.67 0 1.21-.543 1.21-1.212a1.216 1.216 0 00-2.43 0c0 .67.543 1.212 1.213 1.212zm-4.329 2.327a1.213 1.213 0 000 2.426h.007c.67 0 1.21-.543 1.21-1.213s-.547-1.213-1.217-1.213zm40.396-5.557h-.007c-.67 0-1.21.543-1.21 1.213a1.216 1.216 0 002.43 0c0-.67-.543-1.213-1.213-1.213zm-6.33 8.806h-.007c-.67 0-1.21.543-1.21 1.213a1.216 1.216 0 002.43 0c0-.67-.543-1.213-1.213-1.213zm.261-8.002h-.007c-.67 0-1.21.543-1.21 1.213a1.216 1.216 0 002.43 0c0-.67-.543-1.213-1.213-1.213zm4.329 4.753h-.007c-.67 0-1.21.543-1.21 1.213a1.216 1.216 0 002.43 0c0-.67-.543-1.213-1.213-1.213z"
			 />
		<path d="M47.125 5.01h.003a1.21 1.21 0 001.211-1.212 1.214 1.214 0 00-2.427 0c0 .67.543 1.213 1.213 1.213z"
			fill="#343D42" /></svg><svg fill="none" viewBox="0 0 80 64" id="i-analysis"
		xmlns="http://www.w3.org/2000/svg">
		<path
			d="M22.452 11.591l-11.93 17.437A14.382 14.382 0 008 37.178c0 7.96 6.474 14.435 14.434 14.435h.034c7.96 0 14.435-6.474 14.435-14.434 0-2.92-.872-5.74-2.521-8.15L22.452 11.59zm.017 37.957h-.034c-6.821 0-12.37-5.549-12.37-12.37 0-2.503.747-4.918 2.161-6.984l10.226-14.946 10.225 14.946a12.318 12.318 0 012.162 6.985c0 6.82-5.55 12.37-12.37 12.37z"
			fill="#343D42" />
		<path
			d="M14.194 37.179c0-.314.018-.625.052-.934l-2.05-.231a9.94 9.94 0 00-.067 1.165c0 5.681 4.624 10.305 10.34 10.305l-.034-2.065c-4.545 0-8.241-3.696-8.241-8.24zm1.441-4.654L13.93 31.36a10.304 10.304 0 00-1.203 2.359l1.943.693c.237-.663.56-1.298.964-1.886z"
			fill="#E4097F" />
		<path
			d="M72 18.58C72 8.337 63.664 0 53.42 0 43.173 0 34.838 8.336 34.838 18.58c0 8.454 5.68 15.593 13.419 17.837v2.809h-2.065v2.064h2.065v2.065h-2.065v2.064h2.065V64H58.58V45.42h2.064v-2.065H58.58V41.29h2.064v-2.064H58.58v-2.839C66.234 34.087 72 26.868 72 18.581zm-35.097 0c0-9.106 7.41-16.515 16.516-16.515 9.107 0 16.517 7.41 16.517 16.516 0 8.952-7.564 16.516-16.517 16.516-9.106 0-16.516-7.41-16.516-16.516zm19.613 43.356h-6.193V45.419h6.193v16.517zm0-18.581h-6.193V41.29h6.193v2.065zm0-4.13h-6.193v-2.343c1.01.17 2.04.28 3.096.28 1.054 0 2.086-.114 3.097-.293v2.357z"
			fill="#343D42" />
		<path
			d="M65.806 18.58h2.065A14.414 14.414 0 0057.866 4.827l-.635 1.964a12.354 12.354 0 018.575 11.79zM55.64 4.3a14.424 14.424 0 00-2.22-.171v2.065c.637 0 1.28.048 1.907.145l.314-2.04z"
			fill="#343D42" />
		<path
			d="M46.194 12.387a5.167 5.167 0 00-5.162 5.161v9.29h2.065v-6.193h6.193v6.194h2.065v-9.29a5.167 5.167 0 00-5.161-5.162zm-3.097 6.194v-1.033a3.1 3.1 0 013.096-3.096 3.1 3.1 0 013.097 3.096v1.033h-6.193zm20.645 4.129c0-1.232-.542-2.34-1.4-3.097a4.119 4.119 0 001.4-3.097 4.133 4.133 0 00-4.13-4.129H53.42V26.84h6.194a4.133 4.133 0 004.129-4.13zm-8.258-8.258h4.129c1.139 0 2.064.925 2.064 2.064a2.067 2.067 0 01-2.064 2.065h-4.13v-4.13zm0 6.193h4.129c1.139 0 2.064.926 2.064 2.065a2.067 2.067 0 01-2.064 2.064h-4.13v-4.129z"
			fill="#E4097F" /></svg><svg fill="none" viewBox="0 0 80 64" id="i-diagnos"
		xmlns="http://www.w3.org/2000/svg">
		<path
			d="M71.922 35.677a7.467 7.467 0 00-6.323-6.323v-1.94c0-5.35-4.067-9.706-9.066-9.706-4.856 0-8.92 4.224-9.067 9.416h.062l-.062.01v21.021c0 6.72-5.024 12.177-11.2 12.177-6.176 0-11.2-5.464-11.2-12.177v-1.82c1.547 0 3.2-1.121 3.2-4.267v-2.683C35.112 37.635 40 31.757 40 25.092v-2.224h-2.133l-.045-13.882a5.339 5.339 0 00-4.388-5.221 3.183 3.183 0 10-.072 2.175 3.2 3.2 0 012.324 3.052l.048 13.876H33.6v2.255a8.482 8.482 0 01-6.14 7.958 9.699 9.699 0 01-5.867 0 8.477 8.477 0 01-6.126-7.958v-2.255h-3.2V9.002a3.2 3.2 0 012.368-3.076 3.215 3.215 0 10-.067-2.167 5.333 5.333 0 00-4.435 5.243v13.866H8v2.219c0 6.672 4.89 12.552 11.733 14.298v2.683c0 3.146 1.654 4.267 3.2 4.267v1.82c0 7.894 5.98 14.31 13.333 14.31S49.6 56.042 49.6 48.156v-20.97c.107-4.048 3.22-7.342 6.934-7.342 3.822 0 6.933 3.397 6.933 7.574v1.936a7.466 7.466 0 108.456 6.323zM30.4 5.802a1.067 1.067 0 110-2.134 1.067 1.067 0 010 2.134zM17.6 3.669a1.067 1.067 0 110 2.133 1.067 1.067 0 010-2.133zm-7.467 21.418v-.085h3.2v.121a10.598 10.598 0 007.614 9.987 11.87 11.87 0 007.166 0 10.6 10.6 0 007.62-9.987v-.121h2.133v.085c0 5.934-4.574 11.155-10.88 12.418a15.214 15.214 0 01-5.973-.002c-6.306-1.261-10.88-6.482-10.88-12.416zm12.8 19.114c-.96 0-1.067-1.493-1.067-2.133v-2.263c.086.01.173.015.26.023.106.012.213.02.32.03.504.045 1.013.075 1.526.076h.053c.512 0 1.02-.031 1.521-.076.107-.01.22-.018.33-.03.084-.01.172-.013.256-.023v2.263c0 .64-.107 2.133-1.067 2.133h-2.132zm41.6-2.133a5.333 5.333 0 115.333-5.333 5.34 5.34 0 01-5.334 5.333z"
			fill="#343D42" />
		<path
			d="M64.532 33.535a3.2 3.2 0 100 6.4 3.2 3.2 0 000-6.4zm0 4.267a1.067 1.067 0 110-2.134 1.067 1.067 0 010 2.133z"
			fill="#FFD601" /></svg><svg fill="none" viewBox="0 0 80 64" id="i-doc" xmlns="http://www.w3.org/2000/svg">
		<path d="M35.939 41.141a1.016 1.016 0 100-2.031 1.016 1.016 0 000 2.031z" fill="#0677EC" />
		<path
			d="M18.063 19.812v4.063c0 .56.454 1.015 1.015 1.015h29.354c.56 0 1.015-.454 1.015-1.015v-4.063c0-.561-.455-1.016-1.015-1.016H19.078c-.56 0-1.015.455-1.015 1.016zm10.766 1.015h18.587v2.032H28.829v-2.032zm-8.735 0h6.704v2.032h-6.704v-2.032zm-1.016 8.126h29.354a1.016 1.016 0 000-2.031H19.078a1.016 1.016 0 000 2.031zm0 4.063h29.354a1.016 1.016 0 000-2.032H19.078a1.016 1.016 0 000 2.032zm0 4.062h16.86a1.016 1.016 0 100-2.031h-16.86a1.016 1.016 0 000 2.031zm0 4.063h12.798a1.016 1.016 0 000-2.031H19.078a1.016 1.016 0 000 2.031z"
			fill="#343D42" />
		<path
			d="M27.813 49.267h5.18a5.087 5.087 0 004.977 4.062c2.8 0 5.078-2.278 5.078-5.078 0-2.8-2.278-5.078-5.078-5.078a5.087 5.087 0 00-4.976 4.062h-5.18a1.016 1.016 0 100 2.032zm10.157-2.032h-2.872a3.052 3.052 0 012.872-2.031 3.05 3.05 0 013.047 3.047 3.05 3.05 0 01-3.047 3.047 3.052 3.052 0 01-2.872-2.031h2.872a1.016 1.016 0 000-2.032zm10.462-33.111a1.016 1.016 0 000-2.031H46.4a1.016 1.016 0 000 2.031h2.032zm-6.095 0a1.016 1.016 0 100-2.031h-2.03a1.016 1.016 0 000 2.031h2.03zm-6.094 0a1.016 1.016 0 100-2.031h-2.031a1.016 1.016 0 100 2.031h2.031zm-2.336 43.877a1.016 1.016 0 100-2.031 1.016 1.016 0 000 2.031z"
			fill="#0677EC" />
		<path
			d="M15.016 58.001h14.32a1.016 1.016 0 000-2.031H16.032V16.155h7.11c.561 0 1.016-.454 1.016-1.015V8.03H51.48v28.708a27.3 27.3 0 01-1.264 1.406l-2.153-2.153a5.074 5.074 0 00-7.182 0l-1.436 1.436a1.016 1.016 0 000 1.436l12.034 12.035v5.072h-13a1.016 1.016 0 000 2.031h14.016c.561 0 1.016-.454 1.016-1.015v-4.057l.297.298c.397.396 1.04.396 1.437 0l1.436-1.436a5.076 5.076 0 000-7.182l-2.153-2.154c1.927-1.877 6.165-4.995 8.391-5.965 3.126-1.36 4.253-5.61 1.587-8.277-2.647-2.647-6.877-1.571-8.263 1.563-.52 1.175-1.597 2.826-2.732 4.374V7.014c0-.56-.455-1.015-1.016-1.015H23.141c-.277 0-.537.116-.718.297l-8.125 8.125a1.02 1.02 0 00-.298.719v41.846c0 .56.455 1.015 1.016 1.015zm40.227-11.956a3.046 3.046 0 010 4.31l-.717.717-12.928-12.927.718-.718a3.044 3.044 0 014.31 0l8.617 8.618zm-1.953-8.306c1.76-2.123 3.93-5.154 4.81-7.141.789-1.785 3.298-2.62 4.968-.948 1.672 1.671.823 4.202-.96 4.978-2.528 1.1-6.927 4.347-9.017 6.391l-1.44-1.439a31.082 31.082 0 001.64-1.841zM22.125 9.466v4.658h-4.657l4.657-4.658z"
			fill="#343D42" /></svg><svg fill="none" viewBox="0 0 80 64" id="i-dou" xmlns="http://www.w3.org/2000/svg">
		<path
			d="M62.531 30.906h-9.08a5.44 5.44 0 001.096-3.281V9.469A5.475 5.475 0 0049.078 4h-4.156a1.094 1.094 0 000 2.188h4.156a3.285 3.285 0 013.281 3.28v18.157a3.285 3.285 0 01-3.28 3.281H30.921a3.285 3.285 0 01-3.281-3.281V9.469a3.285 3.285 0 013.28-3.281h4.157a1.094 1.094 0 000-2.188h-4.156a5.475 5.475 0 00-5.469 5.469v18.156a5.44 5.44 0 001.097 3.281h-9.081A5.475 5.475 0 0012 36.375v18.156A5.475 5.475 0 0017.469 60h18.156A5.464 5.464 0 0040 57.809 5.464 5.464 0 0044.375 60h18.156A5.475 5.475 0 0068 54.531V36.375a5.475 5.475 0 00-5.469-5.469zM35.625 57.813H17.469a3.285 3.285 0 01-3.282-3.282V36.375a3.285 3.285 0 013.282-3.281h18.156a3.285 3.285 0 013.281 3.281v18.156a3.285 3.285 0 01-3.281 3.282zm30.188-3.282a3.285 3.285 0 01-3.282 3.282H44.375a3.285 3.285 0 01-3.281-3.282V36.375a3.285 3.285 0 013.281-3.281h18.156a3.285 3.285 0 013.282 3.281v18.156z"
			fill="#343D42" />
		<path
			d="M61.944 36H45.056c-.583 0-1.056.473-1.056 1.056v16.888c0 .583.473 1.056 1.056 1.056h16.888c.583 0 1.056-.473 1.056-1.056V37.056c0-.583-.473-1.056-1.056-1.056zM60.89 52.889H46.11V38.11h14.78v14.78z"
			fill="#42A53B" />
		<path
			d="M34.944 36H18.056c-.583 0-1.056.473-1.056 1.056v16.888c0 .583.473 1.056 1.056 1.056h16.888c.583 0 1.056-.473 1.056-1.056V37.056c0-.583-.473-1.056-1.056-1.056zM33.89 52.889H19.11V38.11h14.78v14.78z"
			fill="#E4097F" />
		<path
			d="M30 10.056v16.888c0 .583.497 1.056 1.111 1.056H48.89c.614 0 1.111-.473 1.111-1.056V10.056C50 9.473 49.503 9 48.889 9H31.11c-.613 0-1.11.473-1.11 1.056zm2.222 1.055h15.556V25.89H32.222V11.11z"
			fill="#FFD601" />
		<path
			d="M40.91 13h-1.82c-.602 0-1.09.502-1.09 1.12 0 .62.488 1.121 1.09 1.121h.73v7.638c0 .62.488 1.121 1.09 1.121.602 0 1.09-.502 1.09-1.12v-8.76c0-.618-.488-1.12-1.09-1.12z"
			fill="#FFD601" />
		<path
			d="M23.9 43.981a1.114 1.114 0 001.308-.875 1.108 1.108 0 011.087-.888c.624 0 1.109.593 1.109 1.103 0 .439-.408 1.071-.763 1.573a896.207 896.207 0 01-3.084 4.346A1.107 1.107 0 0024.46 51h4.426C29.5 51 30 50.503 30 49.89c0-.611-.499-1.108-1.114-1.108h-2.273l1.85-2.61c.607-.859 1.169-1.798 1.169-2.85 0-1.8-1.528-3.322-3.337-3.322a3.339 3.339 0 00-3.274 2.679 1.11 1.11 0 00.879 1.302z"
			fill="#E4097F" />
		<path
			d="M53 48.8c-.496 0-.922-.406-.99-.945A1.237 1.237 0 0152 47.7c0-.607-.448-1.1-1-1.1s-1 .493-1 1.1c0 .154.01.308.029.459C50.234 49.779 51.512 51 53 51c1.654 0 3-1.48 3-3.3 0-.845-.29-1.616-.766-2.2A3.478 3.478 0 0056 43.3c0-1.82-1.346-3.3-3-3.3-1.43 0-2.668 1.12-2.944 2.662-.106.596.247 1.174.789 1.291.541.117 1.067-.271 1.174-.867.091-.514.504-.886.981-.886.551 0 1 .493 1 1.1 0 .606-.449 1.1-1 1.1-.552 0-1 .492-1 1.1 0 .607.448 1.1 1 1.1.551 0 1 .493 1 1.1 0 .606-.449 1.1-1 1.1z"
			fill="#42A53B" />
		<path
			d="M40 6c.263 0 .521-.107.707-.293A1.01 1.01 0 0041 5c0-.263-.107-.521-.293-.707A1.008 1.008 0 0040 4c-.263 0-.521.107-.707.293A1.008 1.008 0 0039 5c0 .263.107.521.293.707.186.186.444.293.707.293z"
			fill="#343D42" /></svg><svg viewBox="0 0 80 64" id="i-electro"
		xmlns="http://www.w3.org/2000/svg">
		<path
			d="M65.662 38.243A4.34 4.34 0 0070 33.91V6.334A4.34 4.34 0 0065.662 2H14.334A4.34 4.34 0 0010 6.334V33.91a4.34 4.34 0 004.334 4.334h4.615v16.86c0 .647.525 1.172 1.172 1.172h16.965v2.794a2.934 2.934 0 002.929 2.932h7.766a2.934 2.934 0 002.93-2.932v-7.933a2.934 2.934 0 00-2.93-2.932h-7.766a2.934 2.934 0 00-2.93 2.932v2.795H21.294V38.243h10.259v4.981c0 .647.525 1.172 1.172 1.172h28.209v3.808h-2.711a2.934 2.934 0 00-2.93 2.932v7.933a2.934 2.934 0 002.93 2.932h7.762a2.934 2.934 0 002.93-2.932v-7.933a2.934 2.934 0 00-2.93-2.932h-2.707v-4.98c0-.648-.525-1.172-1.172-1.172h-28.21v-3.809h31.767zM39.43 56.275h4.468a1.172 1.172 0 000-2.344H39.43v-2.794c0-.32.268-.59.585-.59h7.766c.318 0 .586.27.586.59v7.932a.588.588 0 01-.586.589h-7.766a.588.588 0 01-.585-.589v-2.794zm22.675 0c.647 0 1.172-.525 1.172-1.172v-4.555h2.707c.318 0 .586.27.586.588v7.933c0 .32-.268.589-.585.589h-7.763a.595.595 0 01-.586-.589v-7.933c0-.319.268-.588.586-.588h2.71v4.555c0 .647.526 1.172 1.173 1.172zM20.12 30.635a2.066 2.066 0 112.067-2.067 2.07 2.07 0 01-2.067 2.067zM31.55 35.9H21.294v-3.08a4.418 4.418 0 003.238-4.252 4.414 4.414 0 00-4.41-4.408 4.412 4.412 0 00-4.407 4.408 4.417 4.417 0 003.235 4.25V35.9h-4.615a1.993 1.993 0 01-1.99-1.99V6.333c0-1.097.893-1.99 1.99-1.99h51.328c1.1 0 1.994.893 1.994 1.99V33.91c0 1.098-.894 1.99-1.994 1.99H33.895v-3.08a4.417 4.417 0 003.236-4.252 4.412 4.412 0 00-4.407-4.407 4.414 4.414 0 00-4.411 4.407 4.418 4.418 0 003.239 4.252v3.08zm1.173-5.265a2.07 2.07 0 01-2.067-2.067 2.066 2.066 0 112.067 2.067z"
			fill="#343D42" />
		<path
			d="M45.17 26.995h.007a1.17 1.17 0 001.169-1.172 1.175 1.175 0 00-2.347 0c0 .647.524 1.172 1.171 1.172zm6.242-2.344a1.172 1.172 0 000 2.344h.01c.647 0 1.167-.525 1.167-1.172 0-.647-.53-1.172-1.177-1.172zm6.245 0a1.172 1.172 0 000 2.344h.007a1.17 1.17 0 001.168-1.172c0-.647-.528-1.172-1.175-1.172zm6.241 0a1.172 1.172 0 000 2.344h.007a1.17 1.17 0 001.169-1.172c0-.647-.528-1.172-1.175-1.172zM45.17 32.353h.007a1.17 1.17 0 001.169-1.172 1.175 1.175 0 00-2.347 0c0 .647.524 1.172 1.171 1.172zm6.242-2.343a1.172 1.172 0 000 2.343h.01c.647 0 1.167-.525 1.167-1.172 0-.647-.53-1.172-1.177-1.172zm6.245 0a1.172 1.172 0 100 2.343h.007a1.17 1.17 0 001.168-1.172c0-.647-.528-1.172-1.175-1.172zm6.241 0a1.172 1.172 0 000 2.343h.007a1.17 1.17 0 001.169-1.172c0-.647-.528-1.172-1.175-1.172zm-18.721-8.775h18.721c.648 0 1.172-.525 1.172-1.172v-5.986c0-.647-.524-1.172-1.171-1.172H45.176c-.647 0-1.172.525-1.172 1.172v5.986c0 .647.525 1.172 1.172 1.172zm1.172-5.986h16.378v3.642H46.349V15.25z"
			 />
		<path d="M45.177 9.266h18.721a1.172 1.172 0 000-2.344H45.177a1.172 1.172 0 000 2.344z" fill="#343D42" />
		<path
			d="M40.901 18.488v-8.82a2.75 2.75 0 00-2.746-2.746h-4.983a1.172 1.172 0 000 2.344h4.983c.218 0 .402.185.402.403v8.82a.408.408 0 01-.402.402H17.669a.408.408 0 01-.402-.403v-8.82c0-.217.184-.402.402-.402h4.98a1.172 1.172 0 000-2.344h-4.98a2.75 2.75 0 00-2.746 2.747v8.82a2.75 2.75 0 002.746 2.746h20.486a2.75 2.75 0 002.746-2.747z"
			 />
		<path d="M27.91 9.266h.007a1.17 1.17 0 001.169-1.172 1.175 1.175 0 00-2.347 0c0 .647.524 1.172 1.171 1.172z"
			fill="#0677EC" /></svg><svg fill="none" viewBox="0 0 16 16" id="i-geo" xmlns="http://www.w3.org/2000/svg">
		<g clip-path="url(#ahclip0)" fill="#34358C">
			<path
				d="M12.152 9.783a.665.665 0 10-.307 1.296c2.07.492 2.821 1.218 2.821 1.588 0 .796-2.658 2-6.666 2-4.007 0-6.667-1.204-6.667-2 0-.37.752-1.096 2.821-1.588a.665.665 0 10-.307-1.296C1.367 10.37 0 11.395 0 12.667 0 14.855 4.025 16 8 16c3.975 0 8-1.145 8-3.333 0-1.272-1.366-2.296-3.848-2.884zM8 5.334A.667.667 0 108 4a.667.667 0 000 1.334z" />
			<path
				d="M7.132 12.422l.272.543a.667.667 0 001.193 0l.575-1.15c.699-1.399 1.562-2.754 2.396-4.065l.38-.598c.47-.744.719-1.603.719-2.485a4.675 4.675 0 00-1.56-3.483A4.673 4.673 0 007.455.032C5.38.268 3.667 1.938 3.38 4.004a4.658 4.658 0 00.86 3.423c1.131 1.532 2.014 3.237 2.892 4.995zM8 2.667c1.103 0 2 .897 2 2s-.897 2-2 2c-1.102 0-2-.897-2-2s.898-2 2-2z" />
		</g>
		<defs>
			<clipPath id="ahclip0">
				<path fill="#fff" d="M0 0h16v16H0z" />
			</clipPath>
		</defs>
	</svg><svg viewBox="0 0 80 64" id="i-kid" xmlns="http://www.w3.org/2000/svg">
		<path
			d="M11.88 23.627a17.381 17.381 0 004.85 6.971c-4.504.84-7.927 4.826-7.927 9.606v13.69c0 .598.48 1.082 1.074 1.082.592 0 1.073-.484 1.073-1.082v-13.69c0-4.194 3.385-7.607 7.546-7.607h1.061a17.13 17.13 0 008.465 2.24c3.037 0 5.936-.805 8.465-2.24h1.062c4.16 0 7.546 3.413 7.546 7.607v4.924c0 .598.48 1.083 1.073 1.083s1.074-.485 1.074-1.083v-4.924c0-4.78-3.424-8.766-7.928-9.606a17.385 17.385 0 004.852-6.971 6.104 6.104 0 003.878-5.682c0-2.36-1.37-4.503-3.46-5.5C42.414 5.09 35.68 0 28.021 0c-7.66 0-14.393 5.09-16.56 12.445A6.109 6.109 0 008 17.945a6.104 6.104 0 003.88 5.682zm.84-9.368l.529-.193.144-.55c1.749-6.683 7.764-11.352 14.63-11.352 6.864 0 12.88 4.669 14.629 11.353l.143.549.53.193a3.927 3.927 0 01-.278 7.463l-.543.152-.184.537c-2.109 6.138-7.854 10.262-14.298 10.262-6.443 0-12.189-4.124-14.297-10.262l-.185-.537-.542-.152a3.927 3.927 0 01-.279-7.463zm4.69 3.16c0-1.687 1.36-3.059 3.033-3.059 1.673 0 3.034 1.372 3.034 3.059 0 .597-.481 1.082-1.074 1.082a1.078 1.078 0 01-1.073-1.082.891.891 0 00-.887-.894.891.891 0 00-.887.894c0 .597-.48 1.082-1.073 1.082a1.078 1.078 0 01-1.074-1.082zm15.55 0c0-1.687 1.36-3.059 3.034-3.059 1.672 0 3.033 1.372 3.033 3.059 0 .597-.48 1.082-1.073 1.082a1.078 1.078 0 01-1.074-1.082.891.891 0 00-.886-.894.891.891 0 00-.887.894c0 .597-.48 1.082-1.074 1.082a1.078 1.078 0 01-1.073-1.082zm-4.938 8.503c2.577 0 4.95-1.187 6.512-3.258a1.067 1.067 0 011.505-.206 1.09 1.09 0 01.204 1.517c-1.971 2.613-4.968 4.112-8.22 4.112-3.254 0-6.25-1.499-8.221-4.112a1.088 1.088 0 01.204-1.517 1.067 1.067 0 011.504.207c1.562 2.07 3.936 3.257 6.512 3.257z"
			fill="#343D42" />
		<path class="svg-fill"
			d="M28 46.344c-2.206 0-4 1.794-4 4s1.794 4 4 4 4-1.794 4-4-1.794-4-4-4zm0 6.122a2.125 2.125 0 01-2.123-2.122c0-1.17.953-2.123 2.123-2.123 1.17 0 2.123.952 2.123 2.123 0 1.17-.953 2.122-2.123 2.122z"
			/>
		<path class="svg-fill"
			d="M71.612 12.182l-2.18-1.825a1.068 1.068 0 00-1.511.141 1.089 1.089 0 00.14 1.524l1.354 1.134-6.99 8.489a4.087 4.087 0 01-5.781.54 4.12 4.12 0 01-1.465-2.8 4.134 4.134 0 01.928-3.027l6.991-8.489 1.354 1.134a1.068 1.068 0 001.512-.141 1.089 1.089 0 00-.14-1.524l-2.18-1.825a1.066 1.066 0 00-1.512.141l-7.676 9.322a6.292 6.292 0 00-1.415 4.608 6.277 6.277 0 001.437 3.466c-2.987 4.14-1.476 8.514-.01 12.75 1.234 3.568 2.51 7.257 1.637 11.333-.674 3.144-3.031 4.936-4.89 5.886-3.99 2.038-9.398 2.17-14.047.396a9.777 9.777 0 00.526-3.164c0-5.376-4.339-9.75-9.672-9.75-5.332 0-9.671 4.374-9.671 9.75s4.339 9.75 9.671 9.75c3.47 0 6.517-1.852 8.224-4.627a21.25 21.25 0 007.68 1.436c2.953 0 5.833-.621 8.26-1.86 3.215-1.644 5.352-4.257 6.017-7.36 1.002-4.67-.438-8.832-1.708-12.503-1.432-4.138-2.578-7.454-.37-10.639a6.222 6.222 0 007.952-1.42l7.676-9.322a1.09 1.09 0 00-.14-1.524zm-43.59 45.654c-4.149 0-7.524-3.403-7.524-7.586s3.375-7.585 7.524-7.585 7.525 3.402 7.525 7.585-3.376 7.586-7.525 7.586z"
			 /></svg><svg  viewBox="0 0 80 64" id="i-lor" xmlns="http://www.w3.org/2000/svg">
		<g clip-path="url(#ajclip0)">
			<path
				d="M43.226 38.992c-2.964 1.11-4.772 1.11-7.737 0a1.172 1.172 0 00-1.507.677 1.158 1.158 0 00.681 1.495c1.733.648 3.214.972 4.695.972 1.48 0 2.962-.324 4.695-.972.604-.226.91-.896.681-1.495a1.173 1.173 0 00-1.508-.677z"
				fill="#231F20" />
			<path
				d="M50.276 49.019c5.177-2.998 8.666-8.564 8.666-14.928V32.03c-.745.482-1.526.913-2.339 1.29v.772c0 8.247-6.764 14.955-15.077 14.955H37.19c-8.313 0-15.077-6.708-15.077-14.955V25.01h1.718v1.814c0 3.535 2.9 6.41 6.463 6.41h2.029a7.65 7.65 0 004.99-1.87 19.11 19.11 0 01-1.81-1.523 5.287 5.287 0 01-3.18 1.073h-2.03c-2.273 0-4.122-1.835-4.122-4.09V25.01h5.654a18.65 18.65 0 01-1.043-2.32h-8.669v-3.463c0-.613.042-1.216.115-1.81h7.451c-.023-.384-.039-.77-.039-1.16 0-.39.016-.777.04-1.161h-6.977c1.492-5.139 5.691-9.15 10.96-10.408a19.035 19.035 0 012.614-2.712c-9.18.472-16.503 8.03-16.503 17.25v3.463H16.17c-.646 0-1.17.52-1.17 1.16 0 .641.524 1.16 1.17 1.16h3.603v9.084c0 6.363 3.489 11.93 8.666 14.927-7.11.653-12.696 6.6-12.696 13.821 0 .64.524 1.16 1.17 1.16.646 0 1.17-.52 1.17-1.16 0-6.375 5.23-11.562 11.656-11.562h.995c.023 0 .044-.005.067-.006l7.73 7.667a1.175 1.175 0 001.654 0l7.73-7.667c.022.001.043.006.066.006h.995c6.427 0 11.656 5.187 11.656 11.562 0 .64.524 1.16 1.17 1.16.646 0 1.17-.52 1.17-1.16 0-7.22-5.586-13.168-12.696-13.821zm-10.918 7.458l-5.47-5.426c1.07.205 2.173.316 3.301.316h4.337a17.51 17.51 0 003.301-.316l-5.47 5.426z"
				fill="#343D42" />
			<path
				d="M48.612 10.2c-3.367 0-6.105 2.716-6.105 6.055 0 3.34 2.739 6.056 6.105 6.056 3.367 0 6.106-2.716 6.106-6.056s-2.74-6.056-6.106-6.056zm0 9.79c-2.077 0-3.766-1.675-3.766-3.735 0-2.06 1.69-3.735 3.766-3.735 2.077 0 3.766 1.675 3.766 3.735 0 2.06-1.69 3.736-3.766 3.736z"
				 />
			<path
				d="M48.612-.002c-9.037 0-16.39 7.293-16.39 16.257 0 8.965 7.353 16.258 16.39 16.258 9.038 0 16.39-7.293 16.39-16.258 0-8.964-7.352-16.257-16.39-16.257zm0 30.192c-7.746 0-14.048-6.25-14.048-13.935 0-7.683 6.302-13.934 14.048-13.934S62.66 8.57 62.66 16.255c0 7.684-6.302 13.935-14.048 13.935z"
				 />
		</g>
		<defs>
			<clipPath id="ajclip0">
				<path fill="#fff" d="M0 0h80v64H0z" />
			</clipPath>
		</defs>
	</svg><svg fill="none" viewBox="0 0 80 64" id="i-massage" xmlns="http://www.w3.org/2000/svg">
		<path
			d="M35.42 46.712a1.067 1.067 0 00-1.508 0c-.1.102-10.22 9.98-23.22 1.98a1.067 1.067 0 00-1.118 1.813 21.558 21.558 0 0011.423 3.446 22.253 22.253 0 0014.424-5.734 1.067 1.067 0 000-1.505zm-4.43 11.363c-.122.06-12.204 5.965-20.102-1.933a1.067 1.067 0 00-1.509 1.508A16.32 16.32 0 0021.3 62.368a26.765 26.765 0 0010.643-2.385 1.067 1.067 0 10-.953-1.908zm39.436-7.566a1.067 1.067 0 00-1.118-1.813 18.747 18.747 0 01-23.222-1.98 1.067 1.067 0 00-1.507 1.51 22.248 22.248 0 0014.424 5.733 21.559 21.559 0 0011.423-3.45zm-22.37 9.474A26.757 26.757 0 0058.7 62.368a16.32 16.32 0 0011.92-4.718 1.067 1.067 0 00-1.508-1.508c-7.878 7.877-19.98 1.991-20.103 1.933a1.067 1.067 0 00-.953 1.908z"
			fill="#42A53B" />
		<path
			d="M37.867 1.6h-12.8c-.521 0-.966.377-1.052.89l-.762 4.55A4.267 4.267 0 0121.9 9.511c-5.838 5.227-6.012 5.578-6.124 5.803L8.52 28.844a3.902 3.902 0 003.139 5.808l-1.062 1.975a3.888 3.888 0 003.314 5.858 3.864 3.864 0 003.626 4.982 3.762 3.762 0 003.332-1.946l.125-.197a3.791 3.791 0 006.634-.124l5.728-10.597.053 4.045A3.817 3.817 0 0040 41.25a3.824 3.824 0 006.595-2.602l.053-4.045 5.725 10.601a3.793 3.793 0 006.633.117l.08.128a3.794 3.794 0 005.494 1.354 3.963 3.963 0 001.508-4.318 3.887 3.887 0 003.319-5.85l-1.067-1.983a3.903 3.903 0 003.136-5.813L64.24 15.343c-.127-.253-.3-.6-6.139-5.83a4.267 4.267 0 01-1.354-2.472l-.762-4.55a1.067 1.067 0 00-1.052-.89h-12.8c-.589 0-1.066.478-1.066 1.067 0 2.938-.155 19.483-.584 21.25-.158.525-.32 1.081-.483 1.633-.156-.534-.32-1.075-.468-1.579-.457-1.869-.599-18.005-.599-21.304 0-.59-.477-1.067-1.066-1.067zm3.315 27.832c.044-.412.732-2.864 1.358-4.955.517-2.115.66-18.164.66-20.744h10.83l.609 3.657a6.416 6.416 0 002.04 3.712c3.87 3.466 5.493 5.013 5.667 5.226l7.253 13.522a1.852 1.852 0 01-.688 2.504 1.64 1.64 0 01-2.133-.607l-4.636-8.69a1.067 1.067 0 00-1.883 1.005c6.549 12.273 3.065 5.76 7.28 13.598.482.81.273 1.853-.484 2.415a1.694 1.694 0 01-2.396-.6c-.612-1.158 2.28 4.418-6.507-12.16a1.067 1.067 0 10-1.884.997c3.477 6.565 6.522 12.327 7.596 14.316a1.86 1.86 0 01-.477 2.418 1.682 1.682 0 01-2.454-.66c-2.856-4.503-.904-1.035-8.308-15.009a1.067 1.067 0 00-1.885 1c5.402 10.195 6.356 12.02 6.49 12.207a1.843 1.843 0 01-.544 2.208 1.693 1.693 0 01-2.435-.599l-7.68-14.22a1.067 1.067 0 00-2.006.494l-.106 8.148c-.005.458-.19.895-.516 1.216a1.697 1.697 0 01-2.876-1.247l.115-9.152zm-2.249 9.152a1.697 1.697 0 01-2.88 1.252 1.734 1.734 0 01-.515-1.215l-.106-8.15a1.067 1.067 0 00-2.006-.493l-7.68 14.204a1.692 1.692 0 01-2.438.603 1.844 1.844 0 01-.543-2.209c.133-.186 1.088-2.012 6.49-12.207a1.067 1.067 0 10-1.885-1c-7.372 13.915-5.553 10.667-8.35 15.081a1.683 1.683 0 01-2.409.589 1.86 1.86 0 01-.478-2.418c1.08-2 4.541-8.547 7.597-14.316a1.067 1.067 0 10-1.885-.998c-8.725 16.479-5.888 11.006-6.5 12.16a1.698 1.698 0 01-2.393.602 1.84 1.84 0 01-.482-2.425c4.118-7.661.88-1.6 7.275-13.59a1.067 1.067 0 00-1.883-1.004l-4.635 8.692c-.45.72-1.372.982-2.134.607a1.853 1.853 0 01-.69-2.501l7.222-13.467c.297-.352 1.936-1.909 5.699-5.28a6.415 6.415 0 002.04-3.711l.606-3.657H36.8c0 2.468.143 18.63.674 20.8.612 2.035 1.3 4.489 1.342 4.859l.117 9.195v-.003z"
			fill="#343D42" /></svg><svg viewBox="0 0 80 64" id="i-neuro" xmlns="http://www.w3.org/2000/svg">
		<path fill-rule="evenodd" clip-rule="evenodd"
			d="M62.064 64c-.712 0-1.175-.55-1.18-1.4-.01-1.79-.009-3.579-.007-5.37l.002-1.947.044-.25c0-.71-.003-1.42-.007-2.129-.007-1.581-.015-3.216.017-4.822.047-2.414.76-4.666 2.117-6.691 2.147-3.205 3.485-6.282 4.089-9.407 1.52-7.857-.314-14.905-5.449-20.948-4.006-4.715-9.25-7.563-15.587-8.464a24.096 24.096 0 00-3.381-.24c-10.95 0-20.994 7.628-23.88 18.136-.587 2.136-.868 4.43-.858 7.014.01 2.706-.545 5.314-1.698 7.975a503.095 503.095 0 00-2.068 4.87l-.643 1.527c-.18.426-.289.725-.164.981.123.254.415.353.848.475.345.097.692.193 1.038.288.676.187 1.375.38 2.057.583 1.317.394 2.06 1.227 2.27 2.545l.407 2.552c.389 2.437.778 4.874 1.155 7.314.258 1.668 1.329 2.588 3.015 2.591a2433.605 2433.605 0 008.471 0c3.793-.01 6.486-2.548 6.7-6.315.044-.75.494-1.216 1.175-1.216.733.009 1.179.514 1.18 1.32.01 4.18-3.487 8.107-7.486 8.406-2.041.152-4.097.172-5.66.172-.783 0-1.566-.006-2.35-.01a307.08 307.08 0 00-2.35-.012h-.236c-.426 0-.912-.118-1.534-.374-1.895-.78-2.958-2.192-3.248-4.319-.152-1.117-.347-2.246-.535-3.338-.27-1.567-.55-3.188-.705-4.79-.172-1.768-.965-2.597-2.654-2.772-.423-.043-.857-.18-1.277-.313-.127-.04-.255-.081-.383-.119-.924-.275-1.642-.86-2.021-1.649-.375-.778-.384-1.684-.026-2.553a366.208 366.208 0 011.602-3.813c.526-1.238 1.07-2.519 1.59-3.784a15.402 15.402 0 001.182-6.284c-.154-6.055 1.872-12.088 5.704-16.987 3.876-4.956 9.35-8.406 15.415-9.714C38.968.242 41.15 0 43.245 0c7.069 0 13.424 2.722 18.891 8.091 5.342 5.247 7.986 11.815 7.86 19.522-.085 5.133-1.578 9.896-4.438 14.158-1.616 2.408-2.387 4.992-2.357 7.9.033 3.063.023 6.177.014 9.19-.003 1.242-.008 2.485-.009 3.728 0 .87-.438 1.41-1.142 1.411z"
			fill="#343D42" />
		<path fill-rule="evenodd" clip-rule="evenodd"
			d="M45.953 44c-.739 0-1.167-.513-1.175-1.408-.005-.608-.003-1.215-.001-1.824 0-.554.003-1.108-.001-1.662-.013-2.069-1.58-3.596-3.727-3.63a38.312 38.312 0 00-.568-.004l-1.108.003c-.734 0-1.517-.015-2.278-.122-2.211-.312-3.75-1.575-4.572-3.754-.164-.43-.37-.688-.944-.728-3.97-.277-7.365-3.66-7.568-7.541-.213-4.075 2.724-7.766 6.687-8.403 1.327-.213 1.973-.677 2.56-1.838C34.846 9.949 38.074 8 41.681 8c3.2 0 6.08 1.487 7.9 4.08.355.504.75.72 1.367.745 4.416.178 7.966 3.801 7.912 8.077-.01.848.232 1.391.865 1.936 2.22 1.908 2.902 5.116 1.66 7.801-1.176 2.544-3.718 4.124-6.63 4.124-.234 0-.472-.01-.707-.03-2.884-.252-5.427-2.405-6.183-5.238-.023-.088-.043-.178-.066-.281l-.085-.373-.196-.005c-1.795-.047-3.171-.65-4.206-1.843-.55-.632-.558-1.326-.023-1.767a1.08 1.08 0 01.702-.262c.36 0 .735.181 1.057.51.69.703 1.504 1.075 2.357 1.075.378 0 .754-.075 1.116-.222 1.23-.5 1.846-1.533 1.783-2.985-.028-.627.125-1.39 1.009-1.468.046-.004.092-.006.136-.006.65 0 1.066.442 1.169 1.244.24 1.875-.445 3.442-2.038 4.655-.423.322-.555.677-.438 1.185.396 1.736 2.068 3.225 3.888 3.463.268.035.535.052.795.052 1.84 0 3.387-.88 4.246-2.413.906-1.62.686-3.78-.523-5.135a1.368 1.368 0 00-.177-.159 2.658 2.658 0 01-.086-.07l-.212-.181-.274.383c-.07.098-.132.189-.201.276-.263.336-.628.528-1.002.528-.197 0-.39-.052-.57-.153-.573-.322-.75-.965-.42-1.532.666-1.146.957-2.325.888-3.605-.156-2.868-2.936-5.384-5.949-5.384a5.34 5.34 0 00-.691.045 3.678 3.678 0 01-.475.036c-.567 0-.831-.198-1.232-.921-1.44-2.597-3.636-3.914-6.531-3.914l-.147.001c-3.698.056-6.857 3.148-6.899 6.75-.002.193.008.385.017.577.01.21.02.407.015.607a1.116 1.116 0 01-1.142 1.105 1.16 1.16 0 01-1.152-.977c-.037-.23-.062-.462-.087-.69l-.058-.503-.207-.016a3.82 3.82 0 00-.27-.01c-2.476 0-5.092 2.5-5.282 5.046-.13 1.761.402 3.396 1.5 4.603 1.003 1.102 2.407 1.757 3.954 1.845l.14.008.081-.111c.228-.316.44-.631.65-.94.45-.672.877-1.305 1.4-1.845.952-.981 2.229-1.479 3.797-1.479h.039c.733.004 1.205.403 1.232 1.041.035.848-.584 1.107-1.11 1.174-2.28.291-3.596 1.616-3.519 3.543.07 1.702 1.557 3.124 3.318 3.17.286.008.572.01.858.01l.866-.002c.814 0 1.494.016 2.168.1 3.181.39 5.292 2.671 5.376 5.813.031 1.152.016 2.29-.007 3.55-.015.847-.456 1.356-1.18 1.362h-.014z"
			 />
		<path fill-rule="evenodd" clip-rule="evenodd"
			d="M46.418 22.944a1.181 1.181 0 01-.863-.42c-.221-.276-.298-.654-.23-1.123l.003-.017v-.018c.01-1.4-.663-2.468-1.847-2.929a2.819 2.819 0 00-1.024-.2c-.823 0-1.606.398-2.266 1.15-.344.394-.736.61-1.105.61-.233 0-.453-.084-.653-.25-.728-.602-.404-1.352-.004-1.875.943-1.234 2.461-1.97 4.06-1.97.627 0 1.234.113 1.802.337 2.089.825 3.53 3.052 3.35 5.18-.038.46-.227 1.527-1.152 1.527 0 0-.047 0-.07-.002z"
			 /></svg><svg fill="none" viewBox="0 0 12 12" id="i-phone" xmlns="http://www.w3.org/2000/svg">
		<g clip-path="url(#amclip0)">
			<path
				d="M11.037 7.877a6.813 6.813 0 01-2.14-.341c-.335-.114-.746-.01-.95.2l-1.35 1.019C5.032 7.92 4.068 6.956 3.244 5.403l.99-1.314a.97.97 0 00.238-.983A6.823 6.823 0 014.13.963.964.964 0 003.167 0H.963A.964.964 0 000 .963C0 7.049 4.951 12 11.037 12a.964.964 0 00.963-.963V8.84a.964.964 0 00-.963-.962z"
				fill="#E4097F" />
		</g>
		<defs>
			<clipPath id="amclip0">
				<path fill="#fff" d="M0 0h12v12H0z" />
			</clipPath>
		</defs>
	</svg><svg fill="none" viewBox="0 0 16 16" id="i-search" xmlns="http://www.w3.org/2000/svg">
		<circle cx="7.5" cy="7.5" r="6.5" stroke="#343D42" stroke-width="2" />
		<path d="M15 15l-2.5-2.5" stroke="#343D42" stroke-width="2" stroke-linecap="round" /></svg><svg
		viewBox="0 0 80 64" id="i-trauma" xmlns="http://www.w3.org/2000/svg">
		<g clip-path="url(#aoclip0)">
			<path
				d="M59.728 57.49c-1.89 0-3.336-.604-4.296-1.795l-.674-.8a2.393 2.393 0 00-1.836-.846c-.448 0-.884.123-1.26.357-1.593.987-3.084 1.613-4.696 1.97-.45.1-.905.148-1.39.148-.945 0-1.818-.185-2.664-.365-.77-.163-1.488-.316-2.19-.316-.928 0-2.281.269-3.714.552-1.856.369-3.953.784-5.886.784-4.086 0-5.461-2.554-5.461-3.719 0-.675 0-2.47 10.018-6.516 12.234-4.941 16.408-9.023 15.46-22.102-.027-.384.142-.75.454-.977a1.104 1.104 0 011.07-.131l3.822 1.549 3.392-2.056a1.115 1.115 0 011.126-.015c.35.2.565.575.56.978l-.182 14.132a12.377 12.377 0 002.051 6.999l1.054 1.597.014.016a6.382 6.382 0 011.576 4.228c0 2.43-1.286 4.654-3.357 5.805a.968.968 0 01-.064.033l-.366.173c-.09.042-.185.073-.283.09-.879.155-1.603.227-2.278.227zm-6.814-5.656c1.376 0 2.666.594 3.54 1.63l.681.808c.354.442.986.999 2.593.999.5 0 1.041-.051 1.705-.161l.041-.007.185-.088c1.363-.776 2.197-2.248 2.197-3.853 0-1.059-.38-2.059-1.07-2.815a1.08 1.08 0 01-.107-.137l-1.1-1.667a14.587 14.587 0 01-2.418-8.249l.156-12.133-2.159 1.308a1.11 1.11 0 01-.992.08l-2.713-1.1.013.458c.357 12.82-5.184 17.339-16.957 22.095-3.895 1.573-7.438 3.407-8.426 4.361l-.175.17.13.206c.29.456 1.077 1.22 3.084 1.22 1.72 0 3.703-.393 5.454-.741 1.543-.306 3-.595 4.146-.595.934 0 1.802.185 2.642.363.77.164 1.496.318 2.211.318.323 0 .62-.031.91-.095 1.36-.301 2.633-.838 4.006-1.689a4.596 4.596 0 012.423-.686zm23.989-20.182c-.162 0-.32-.035-.467-.104l-5.635-2.62a1.11 1.11 0 01.936-2.013l5.635 2.621a1.11 1.11 0 01-.47 2.116zm-43.222 0a1.111 1.111 0 01-.469-2.116l5.635-2.621a1.114 1.114 0 011.474.538 1.111 1.111 0 01-.538 1.474l-5.635 2.621c-.148.07-.305.104-.467.104zm39.06-9.298a1.11 1.11 0 01-1.109-1.109c0-.611.498-1.11 1.11-1.11h6.213a1.11 1.11 0 010 2.219h-6.213zm-41.112 0a1.11 1.11 0 01-1.11-1.109c0-.611.498-1.11 1.11-1.11h6.213a1.11 1.11 0 010 2.219H31.63zm25.306-.938a1.11 1.11 0 01-.407-.077l-4.455-1.758a1.107 1.107 0 01-.702-1.005l-.426-16.923A1.11 1.11 0 0152.026.516c.626 0 1.122.485 1.137 1.08l.408 16.19 3.29 1.298 3.05-1.656-.408-15.422a1.111 1.111 0 011.08-1.139c.635 0 1.122.475 1.138 1.08l.426 16.103c.01.419-.211.804-.58 1.005l-4.103 2.227a1.105 1.105 0 01-.529.134zm14.335-5.738c-.43 0-.826-.251-1.007-.641a1.111 1.111 0 01.538-1.475l5.635-2.62a1.113 1.113 0 011.474.538 1.111 1.111 0 01-.538 1.474l-5.635 2.62c-.148.07-.305.104-.467.104zm-31.956 0a1.1 1.1 0 01-.467-.103l-5.634-2.621a1.11 1.11 0 01.935-2.012l5.635 2.62a1.111 1.111 0 01-.469 2.117z"
				fill="#343D42" />
			<path
				d="M6.108 64c-1.779 0-3.206-.383-4.24-1.14C1.015 62.238 0 61.042 0 58.879c0-1.077.414-2.048 1.197-2.806 1.678-1.627 4.655-1.97 6.857-1.97.244 0 .483.005.714.012a11.199 11.199 0 006.694-1.946c1.314-.895 2.444-1.476 3.751-2.148 1.243-.639 2.646-1.359 4.549-2.532 5.047-3.212 9.138-5.683 13.94-8.08a14.54 14.54 0 008.033-14.328L43.703 1.418a1.103 1.103 0 01.256-.81 1.102 1.102 0 01.848-.395c.572 0 1.058.446 1.107 1.015l2.032 23.662c.595 6.923-3.037 13.401-9.253 16.504-4.717 2.354-8.759 4.797-13.753 7.974-1.985 1.225-3.431 1.968-4.708 2.623-1.294.666-2.317 1.191-3.52 2.01A13.401 13.401 0 018.7 56.332c-.21-.007-.417-.01-.62-.01-2.512 0-4.457.49-5.337 1.343-.357.345-.523.73-.523 1.212 0 1.004.313 1.72.958 2.192.655.478 1.63.721 2.9.721 1.437 0 3.205-.32 5.112-.929a11.312 11.312 0 014.755-.462c3.69.421 6.116.593 8.373.593 4.297 0 7.929-.642 15.086-1.978a14.016 14.016 0 014.417-.115l.884.117c5.075.671 10.828 1.432 15.53 1.432 5.518 0 8.644-1.07 9.555-3.274 2.564-6.195.618-10.826-1.443-15.728-1.44-3.426-2.928-6.968-2.904-11.139 0-.026.001-.055.003-.082L67.791 1.02A1.113 1.113 0 0168.984.004a1.1 1.1 0 01.757.387c.192.226.285.513.26.808l-2.34 29.15c-.01 3.717 1.322 6.884 2.73 10.237 2.147 5.107 4.366 10.387 1.448 17.437-1.313 3.172-5.032 4.65-11.705 4.65-4.704 0-10.303-.74-15.718-1.457l-.886-.117a11.815 11.815 0 00-3.721.096c-7.087 1.323-10.995 2.013-15.486 2.013-2.335 0-4.917-.18-8.631-.604a9.106 9.106 0 00-3.83.37C9.73 63.656 7.796 64 6.11 64h-.002z"
				 />
		</g>
		<defs>
			<clipPath id="aoclip0">
				<path fill="#fff" d="M0 0h80v64H0z" />
			</clipPath>
		</defs>
	</svg><svg viewBox="0 0 24 24" id="inst" xmlns="http://www.w3.org/2000/svg">
		<path
			d="M23.928 7.053c-.059-1.278-.261-2.15-.558-2.913a5.88 5.88 0 00-1.384-2.126A5.883 5.883 0 0019.86.63c-.763-.297-1.635-.5-2.912-.557C15.668.013 15.258 0 12 0 8.741 0 8.332.014 7.052.072 5.775.131 4.903.333 4.14.63a5.888 5.888 0 00-2.126 1.384A5.882 5.882 0 00.63 4.14c-.297.763-.5 1.635-.557 2.912C.013 8.332 0 8.741 0 12c0 3.259.014 3.668.073 4.948.058 1.277.26 2.15.557 2.912a5.88 5.88 0 001.384 2.126A5.88 5.88 0 004.14 23.37c.763.297 1.635.5 2.913.558C8.333 23.986 8.74 24 12 24s3.668-.014 4.948-.072c1.277-.059 2.15-.261 2.912-.558a6.135 6.135 0 003.51-3.51c.297-.763.5-1.635.558-2.912.058-1.28.072-1.689.072-4.948 0-3.259-.014-3.668-.072-4.947zm-2.16 9.796c-.053 1.17-.25 1.806-.413 2.229a3.974 3.974 0 01-2.278 2.277c-.423.164-1.058.36-2.228.413-1.265.058-1.645.07-4.849.07-3.205 0-3.584-.012-4.85-.07-1.169-.053-1.804-.249-2.227-.413a3.717 3.717 0 01-1.38-.898 3.717 3.717 0 01-.898-1.38c-.164-.422-.36-1.058-.413-2.228-.058-1.265-.07-1.645-.07-4.849s.012-3.583.07-4.849c.054-1.17.249-1.805.413-2.228.193-.521.5-.993.898-1.38a3.715 3.715 0 011.38-.898c.423-.164 1.058-.36 2.228-.413 1.265-.058 1.645-.07 4.849-.07s3.584.012 4.849.07c1.17.054 1.805.25 2.228.413.521.193.993.5 1.38.898.398.387.705.859.898 1.38.164.423.36 1.058.413 2.228.057 1.265.07 1.645.07 4.85 0 3.204-.012 3.583-.07 4.848z" />
		<path
			d="M12 6a6 6 0 100 12 6 6 0 000-12zm0 9.895a3.895 3.895 0 110-7.79 3.895 3.895 0 010 7.79zM20 5.5a1.5 1.5 0 11-3 0 1.5 1.5 0 013 0z" /></svg><svg fill="none" viewBox="0 0 24 24" id="inst-2" xmlns="http://www.w3.org/2000/svg">
		<path
			d="M23.928 7.052c-.059-1.277-.261-2.15-.558-2.912a5.88 5.88 0 00-1.384-2.126A5.883 5.883 0 0019.86.63c-.763-.297-1.635-.5-2.912-.557C15.668.013 15.258 0 12 0 8.741 0 8.332.014 7.052.072 5.775.131 4.903.333 4.14.63a5.888 5.888 0 00-2.126 1.384A5.882 5.882 0 00.63 4.14c-.297.764-.5 1.636-.557 2.913C.013 8.332 0 8.741 0 12c0 3.259.014 3.668.073 4.948.058 1.277.26 2.149.557 2.912a5.88 5.88 0 001.384 2.126c.6.61 1.325 1.082 2.126 1.384.763.297 1.635.5 2.913.558C8.333 23.986 8.74 24 12 24s3.668-.014 4.948-.072c1.277-.059 2.15-.261 2.912-.558a6.135 6.135 0 003.51-3.51c.297-.763.5-1.635.558-2.912.058-1.28.072-1.69.072-4.948 0-3.26-.014-3.668-.072-4.948zm-2.16 9.797c-.053 1.17-.25 1.806-.413 2.228a3.974 3.974 0 01-2.278 2.278c-.423.164-1.058.36-2.228.413-1.265.058-1.645.07-4.849.07-3.205 0-3.584-.012-4.85-.07-1.169-.053-1.804-.249-2.227-.413a3.72 3.72 0 01-1.38-.898 3.718 3.718 0 01-.898-1.38c-.164-.422-.36-1.058-.413-2.228-.058-1.265-.07-1.645-.07-4.849s.012-3.584.07-4.849c.054-1.17.249-1.805.413-2.228.193-.522.5-.993.898-1.38a3.715 3.715 0 011.38-.898c.423-.164 1.058-.36 2.228-.413 1.265-.058 1.645-.07 4.849-.07s3.584.012 4.849.07c1.17.054 1.805.25 2.228.413.521.193.993.5 1.38.898.398.387.705.858.898 1.38.164.423.36 1.058.413 2.228.057 1.265.07 1.645.07 4.849s-.012 3.584-.07 4.85z"
			fill="url(#aqpaint0_linear)" />
		<path d="M12 5.838a6.162 6.162 0 100 12.324 6.162 6.162 0 000-12.324zM12 16a4 4 0 110-8 4 4 0 010 8z"
			fill="url(#aqpaint1_linear)" />
		<path d="M19.846 5.594a1.44 1.44 0 11-2.88 0 1.44 1.44 0 012.88 0z" fill="url(#aqpaint2_linear)" />
		<defs>
			<linearGradient id="aqpaint0_linear" x1="2.014" y1="21.986" x2="21.986" y2="2.014"
				gradientUnits="userSpaceOnUse">
				<stop stop-color="#FFD600" />
				<stop offset=".5" stop-color="#FF0100" />
				<stop offset="1" stop-color="#D800B9" />
			</linearGradient>
			<linearGradient id="aqpaint1_linear" x1="7.643" y1="16.357" x2="16.357" y2="7.643"
				gradientUnits="userSpaceOnUse">
				<stop stop-color="#FF6400" />
				<stop offset=".5" stop-color="#FF0100" />
				<stop offset="1" stop-color="#FD0056" />
			</linearGradient>
			<linearGradient id="aqpaint2_linear" x1="17.387" y1="6.613" x2="19.424" y2="4.576"
				gradientUnits="userSpaceOnUse">
				<stop stop-color="#F30072" />
				<stop offset="1" stop-color="#E50097" />
			</linearGradient>
		</defs>
	</svg><svg fill="none" viewBox="0 0 132 40" id="logo" xmlns="http://www.w3.org/2000/svg">
		<path fill-rule="evenodd" clip-rule="evenodd"
			d="M132 12.965c0 3.05-.935 5.656-2.805 7.824h.007c-1.188 1.375-2.65 2.41-4.4 3.099-1.708.674-3.655 1.007-5.855 1.007h-5.378a1.264 1.264 0 01-1.272-1.258V2.286c0-.695.569-1.258 1.272-1.258h5.378c2.003 0 3.81.292 5.419.869a11.606 11.606 0 014.267 2.64 10.865 10.865 0 012.53 3.78c.556 1.403.837 2.953.837 4.648zm-24.103 11.93h-11.57a1.265 1.265 0 01-1.272-1.258V2.286c0-.695.57-1.258 1.272-1.258h11.57c.703 0 1.272.563 1.272 1.258v1.71c0 .694-.569 1.257-1.272 1.257h-8.196v4.315h7.852a1.27 1.27 0 011.279 1.257v1.71c0 .701-.576 1.264-1.279 1.264h-7.852v6.872h8.196c.703 0 1.272.562 1.272 1.257v1.71c0 .694-.569 1.257-1.272 1.257zm-16.814 0h-1.94a1.264 1.264 0 01-1.272-1.202l-1.497-11.437-6.087 12.764a1.273 1.273 0 01-1.688.605 1.254 1.254 0 01-.611-.605l-6.073-12.763-1.512 11.54a1.262 1.262 0 01-1.258 1.098h-1.94a1.265 1.265 0 01-1.244-1.522l2.91-22.108a1.276 1.276 0 012.432-.334l7.838 16.571L87.006.896a1.27 1.27 0 012.405.369l2.93 22.213c.092.688-.4 1.313-1.096 1.403a1.17 1.17 0 01-.162.014zm36.151-11.93c0-1.209-.189-2.279-.569-3.21a6.636 6.636 0 00-1.673-2.404 7.49 7.49 0 00-2.657-1.563c-1.047-.355-2.249-.535-3.606-.535h-1.778V20.67h1.778c1.504 0 2.805-.195 3.909-.591 1.061-.382 1.947-.945 2.663-1.695l.007-.007a6.484 6.484 0 001.434-2.314c.331-.896.492-1.932.492-3.099z"
			fill="#31A128" />
		<path fill-rule="evenodd" clip-rule="evenodd"
			d="M64.352 3.245L60.246 9.88a1.282 1.282 0 01-1.672.459l-1.027-.459a1.268 1.268 0 01-.632-1.66l3.247-7.094A1.275 1.275 0 0161.842.5c.029.007.064.028.092.042l1.898.924a1.248 1.248 0 01.52 1.779z"
			fill="#009EE0" />
		<path fill-rule="evenodd" clip-rule="evenodd"
			d="M55.502 20.045c0 1.334-.429 2.495-1.3 3.481-.007.014-.022.021-.029.035A5.369 5.369 0 0152.051 25c-.809.305-1.715.458-2.735.458a7.33 7.33 0 01-1.518-.16 5.969 5.969 0 01-1.413-.5h-.007a5.71 5.71 0 01-1.736-1.39 7.213 7.213 0 01-1.195-2 1.26 1.26 0 01.633-1.613l1.462-.764a1.28 1.28 0 011.722.521c.042.084.077.16.098.244.092.257.197.486.323.687.127.195.268.362.436.507a.49.49 0 01.07.063c.162.132.331.236.52.306.226.083.493.118.795.118.563 0 .97-.132 1.21-.404.006-.013.02-.02.027-.034.197-.222.296-.535.296-.931 0-.535-.401-.952-1.21-1.25-.695-.216-1.082-.327-1.166-.355-.218-.07-.485-.153-.787-.257a7.893 7.893 0 01-1.441-.612 4.944 4.944 0 01-1.23-.903 4.16 4.16 0 01-.914-1.397 4.596 4.596 0 01-.324-1.75c0-.73.14-1.41.422-2.03a4.48 4.48 0 011.251-1.632 5.428 5.428 0 011.8-1 6.61 6.61 0 012.094-.32c.478 0 .95.048 1.399.146.464.097.893.25 1.28.451l.084.042c.54.292 1.019.667 1.448 1.133a6.759 6.759 0 011.103 1.653 1.25 1.25 0 01-.548 1.654l-1.385.736a1.282 1.282 0 01-1.722-.52.757.757 0 01-.049-.105l-.007.007a2.025 2.025 0 00-.316-.55 1.785 1.785 0 00-.394-.367 1.59 1.59 0 00-.478-.23 2.043 2.043 0 00-.57-.076c-.337 0-.597.083-.773.257a.631.631 0 00-.175.243.851.851 0 00-.057.355c0 .16.021.285.07.368.05.083.127.153.24.222.056.021.225.084.52.18.386.14.914.32 1.588.536.612.194 1.167.417 1.652.66.528.257.963.535 1.315.834a4.607 4.607 0 011.307 1.688c.295.646.436 1.355.436 2.126z"
			fill="#FFCB00" />
		<path fill-rule="evenodd" clip-rule="evenodd"
			d="M40.13 24.902H38.4c-.45 0-.85-.236-1.082-.59l-.422.25a7.351 7.351 0 01-1.673.66 6.905 6.905 0 01-1.764.23 8.912 8.912 0 01-3.051-.515 7.968 7.968 0 01-2.587-1.556c-.007-.008-.02-.015-.028-.028a7.562 7.562 0 01-1.94-2.786c-.429-1.064-.64-2.245-.64-3.544 0-1.181.19-2.28.57-3.28a8.09 8.09 0 011.736-2.73 7.697 7.697 0 012.706-1.82c.998-.397 2.102-.598 3.297-.598 1.005 0 1.933.173 2.776.528l.007.007v-.007c.24.104.471.222.696.347V1.257A1.27 1.27 0 0138.281 0h1.848c.703 0 1.273.563 1.273 1.257v22.388c0 .694-.57 1.257-1.273 1.257zm-3.01-7.879c0-.667-.09-1.279-.273-1.82a4.375 4.375 0 00-.795-1.439 3.257 3.257 0 00-1.11-.896c-.415-.195-.886-.292-1.42-.292-.626 0-1.174.111-1.638.34a3.268 3.268 0 00-1.195 1.008c-.316.43-.555.896-.71 1.397a5.666 5.666 0 00-.239 1.702c0 .68.091 1.3.274 1.848a4.35 4.35 0 00.788 1.425c.323.395.703.687 1.131.875.436.201.95.299 1.526.299.562 0 1.054-.098 1.483-.278a3.2 3.2 0 001.124-.834c.345-.39.605-.84.78-1.369.183-.563.275-1.216.275-1.966z"
			fill="#E30079" />
		<path fill-rule="evenodd" clip-rule="evenodd"
			d="M23.33 5.92c0 .368-.07.716-.211 1.049-.14.333-.352.632-.626.882-.541.487-1.16.73-1.862.73-.338 0-.668-.056-.992-.18a2.66 2.66 0 01-.878-.536 2.474 2.474 0 01-.626-.896 2.73 2.73 0 01-.197-1.05c0-.333.057-.66.183-.979.12-.32.302-.604.541-.862.26-.278.563-.479.914-.618.33-.132.682-.194 1.055-.194.365 0 .71.055 1.026.18.351.139.646.327.9.584.26.25.45.542.583.882.127.313.19.653.19 1.008zm-1.772 18.989H19.71c-.71 0-1.28-.563-1.28-1.258V11.075c0-.695.57-1.257 1.28-1.257h1.848c.71 0 1.28.562 1.28 1.257v12.577c0 .694-.57 1.257-1.28 1.257z"
			fill="#F07C00" />
		<path fill-rule="evenodd" clip-rule="evenodd"
			d="M15.85 24.902h-2.804c-.401 0-.76-.18-.991-.466l-7.402-7.941v7.15c0 .694-.57 1.257-1.272 1.257H1.286a1.265 1.265 0 01-1.272-1.258V2.294c0-.695.57-1.258 1.272-1.258H3.38c.703 0 1.272.563 1.272 1.258v6.795l7.472-7.67c.253-.25.583-.383.92-.383h2.588c.702 0 1.272.563 1.272 1.258 0 .375-.169.708-.43.945l-9.327 9.415 9.623 10.137c.485.5.457 1.3-.05 1.772-.245.229-.561.34-.87.34z"
			fill="#009EE0" />
		<path fill-rule="evenodd" clip-rule="evenodd"
			d="M130.229 34.178v-1.306h-.696c-.661 0-.991.222-.991.653 0 .437.33.653.991.653h.696zm0 1.098h-.387l-1.581 2.014c-.12.16-.225.264-.31.313-.112.07-.26.097-.443.097-.232 0-.421-.07-.562-.215-.141-.153-.204-.285-.204-.403a.97.97 0 01.267-.668l1.104-1.236c-.893-.18-1.343-.73-1.343-1.647 0-1.167.83-1.765 2.488-1.765h1.716c.393 0 .667.09.808.264.127.153.183.438.183.841v3.71c0 .744-.288 1.12-.872 1.12-.295 0-.52-.119-.668-.355-.133-.202-.196-.452-.196-.764v-1.306zm-7.704-.07v1.3h.703c.66 0 .991-.216.991-.647 0-.278-.106-.458-.317-.563-.133-.062-.358-.09-.674-.09h-.703zm0-1.112c.991 0 1.617.021 1.876.063.795.125 1.287.43 1.484.924.084.216.126.473.126.778 0 .702-.267 1.189-.808 1.453-.387.208-.984.305-1.786.305h-1.637c-.668 0-.998-.375-.998-1.111v-3.634c0-.737.295-1.105.878-1.105.577 0 .865.368.865 1.105v1.222zm-6.193 1.175v1.299h.703c.661 0 .991-.215.991-.646 0-.271-.105-.459-.316-.556-.134-.07-.358-.097-.675-.097h-.703zm-.745 2.41c-.668 0-.998-.375-.998-1.111v-3.696c0-.737.33-1.105.998-1.105h1.56c.788 0 1.371.104 1.744.305.506.278.759.758.759 1.453 0 .493-.246.868-.724 1.118.597.313.893.737.893 1.279 0 .702-.267 1.188-.809 1.459-.386.201-.984.299-1.785.299h-1.638zm.745-4.808v1.3h.703c.281 0 .485-.035.612-.105.175-.097.26-.277.26-.542 0-.43-.309-.653-.942-.653h-.633zm-6.755 1.835c0 .389.091.73.267 1.014.218.341.513.507.886.507.372 0 .668-.166.885-.507.183-.285.274-.625.274-1.014a1.77 1.77 0 00-.281-.987c-.218-.326-.513-.486-.878-.486-.373 0-.668.16-.886.486-.176.271-.267.605-.267.987zm-1.806.02c0-.861.273-1.59.829-2.174.548-.598 1.258-.89 2.13-.89.885 0 1.603.292 2.137.883.541.584.815 1.313.815 2.182 0 .868-.267 1.59-.801 2.167-.555.598-1.272.89-2.151.89-.872 0-1.589-.299-2.151-.903-.534-.577-.808-1.293-.808-2.154zm-4.682.112c0 .382.092.702.274.945.211.284.506.423.886.423.386 0 .682-.153.892-.465.183-.271.275-.605.275-.994 0-.375-.099-.702-.288-.966-.204-.312-.5-.465-.879-.465a1.16 1.16 0 00-.816.313c-.231.208-.344.611-.344 1.209zm.042 2.453h-.042v1.486c0 .813-.274 1.223-.83 1.223-.59 0-.885-.417-.885-1.243V33.01c0-.834.295-1.244.885-1.244.345 0 .626.18.83.549.352-.396.837-.59 1.441-.59.802 0 1.462.312 1.961.937.464.577.696 1.265.696 2.064 0 .597-.14 1.146-.422 1.646a2.768 2.768 0 01-1.223 1.181c-.33.16-.674.244-1.033.244-.527 0-.984-.167-1.378-.508zm-6.783-2.585c0 .389.092.73.274 1.014.218.341.513.507.886.507s.668-.166.886-.507c.175-.285.267-.625.267-1.014 0-.375-.092-.709-.282-.987-.21-.326-.506-.486-.871-.486-.373 0-.668.16-.886.486-.182.271-.274.605-.274.987zm-1.8.02c0-.861.275-1.59.823-2.174.555-.598 1.266-.89 2.137-.89.886 0 1.603.292 2.144.883.541.584.808 1.313.808 2.182 0 .868-.267 1.59-.794 2.167-.555.598-1.28.89-2.158.89-.872 0-1.588-.299-2.151-.903-.541-.577-.808-1.293-.808-2.154zm-1.764 2.891h-3.978c0 .493-.007.778-.021.855-.063.34-.253.507-.563.507-.54 0-.808-.278-.808-.834v-1.098c0-.354.085-.576.26-.653.148-.034.302-.062.464-.09.176-.077.26-.292.26-.646v-2.154c0-.632.169-1.084.52-1.369.317-.243.802-.368 1.47-.368h2.172c.351 0 .59.118.717.361.098.174.14.445.14.806v3.412c.506 0 .76.243.76.73v1.07c0 .555-.268.833-.809.833-.302 0-.485-.174-.555-.521-.021-.09-.029-.368-.029-.841zm-2.959-1.272h1.877v-3.21h-1.308c-.267 0-.4.132-.4.39v2.133c0 .215-.056.444-.169.687zm-6.509-1.618c0-.369.281-.556.83-.556.393 0 .646-.02.76-.063.224-.076.336-.27.336-.584 0-.305-.098-.52-.28-.632-.141-.076-.374-.111-.697-.111a2.31 2.31 0 00-.766.132c-.281.097-.492.153-.633.153-.429 0-.64-.195-.64-.584 0-.549.725-.82 2.173-.82.808 0 1.406.111 1.8.34.52.293.78.8.78 1.522 0 .494-.24.869-.725 1.119.577.306.865.73.865 1.279 0 1.236-.907 1.862-2.72 1.862-1.554 0-2.327-.292-2.327-.883 0-.354.204-.535.605-.535.126 0 .351.048.674.16.324.104.668.153 1.048.153.618 0 .928-.25.928-.758 0-.23-.057-.396-.176-.493-.112-.104-.337-.153-.675-.16-.422-.007-.682-.028-.78-.055-.253-.063-.38-.222-.38-.486zm-9.588.11c0 .383.092.703.275.946.21.284.506.423.892.423.38 0 .682-.153.886-.465.182-.271.274-.605.274-.994 0-.375-.092-.702-.281-.966a1.003 1.003 0 00-.879-.465c-.323 0-.597.104-.822.313-.225.208-.344.611-.344 1.209zm.05 2.453h-.05v1.487c0 .813-.274 1.223-.829 1.223-.59 0-.886-.417-.886-1.243V33.01c0-.834.296-1.244.886-1.244.344 0 .626.18.83.549.358-.396.836-.59 1.44-.59.81 0 1.463.312 1.969.937.457.577.689 1.265.689 2.064 0 .597-.14 1.146-.422 1.646a2.774 2.774 0 01-1.223 1.181c-.33.16-.675.244-1.034.244-.527 0-.984-.167-1.37-.508zm-5.87-4.05h-.745c-.73 0-1.096-.243-1.096-.73 0-.5.365-.743 1.096-.743h3.22c.73 0 1.096.243 1.096.743 0 .486-.366.73-1.103.73h-.752v3.21c0 .826-.289 1.25-.858 1.25-.576 0-.858-.423-.858-1.25v-3.21zm-5.981 2.029v1.174c0 .834-.282 1.258-.851 1.258-.59 0-.886-.424-.886-1.251v-3.44c0-.833.296-1.243.886-1.243.57 0 .85.41.85 1.244v1.055h1.927v-1.055c0-.834.288-1.244.857-1.244.577 0 .858.41.858 1.244v3.439c0 .826-.281 1.25-.858 1.25-.57 0-.857-.423-.857-1.257v-1.174h-1.926zm-6.58-1.182h2.299a1.011 1.011 0 00-.352-.73 1.111 1.111 0 00-.766-.284c-.309 0-.57.09-.78.278-.21.188-.344.43-.4.736zm.021 1.119c.036.326.176.584.422.758.246.173.542.263.9.263.295 0 .647-.09 1.068-.277.415-.188.675-.279.774-.279.464 0 .695.216.695.66a.8.8 0 01-.196.508c-.232.312-.598.549-1.104.715a4.222 4.222 0 01-1.328.209c-.865 0-1.582-.292-2.158-.875-.577-.584-.865-1.3-.865-2.148 0-.847.274-1.563.83-2.16.548-.605 1.25-.904 2.108-.904.422 0 .808.077 1.153.23.5.222.907.563 1.223 1.007.316.445.478.924.478 1.445 0 .285-.105.5-.316.646-.176.132-.415.202-.71.202h-2.974zm-6.494 1.14h1.911v-3.329c0-.834.289-1.25.858-1.25.576 0 .858.416.858 1.25v3.328c.506 0 .759.244.759.73v1.07c0 .556-.267.834-.809.834-.302 0-.485-.174-.555-.521-.021-.09-.028-.369-.028-.841h-3.634a.95.95 0 01-.808-.396c-.183-.243-.268-.535-.268-.876v-3.328c0-.834.282-1.25.858-1.25.57 0 .858.416.858 1.25v3.328zm-9.216-5.073c-.492 0-.892-.125-1.209-.368-.295-.23-.443-.48-.443-.75 0-.362.17-.535.514-.535.196 0 .365.104.513.312a.73.73 0 00.625.32c.282 0 .486-.111.626-.32.133-.208.295-.312.485-.312.352 0 .527.173.527.534 0 .362-.19.647-.57.855a2.187 2.187 0 01-1.068.264zm-2.79 5.177v-3.44c0-.375.05-.66.14-.854.14-.257.387-.39.745-.39.352 0 .598.126.725.383.084.18.133.465.133.862v1.896l2.095-2.605c.28-.354.569-.535.864-.535.359 0 .605.125.731.382.092.18.134.465.134.862v3.439c0 .39-.042.674-.134.854-.126.264-.372.397-.724.397-.358 0-.604-.133-.73-.397-.092-.18-.134-.465-.134-.861v-1.744l-2.102 2.473c-.295.355-.576.529-.857.529-.59 0-.886-.425-.886-1.251zm-4.836-1.543l2.101-1.896c0-.397.042-.681.127-.862.134-.257.38-.382.738-.382.359 0 .605.125.731.382.092.18.134.465.134.862v3.439c0 .389-.042.674-.134.854-.126.264-.365.396-.724.396-.358 0-.604-.132-.731-.396-.084-.18-.127-.465-.127-.861v-1.668l-2.108 1.668c0 .389-.05.674-.134.861-.133.264-.372.396-.724.396-.597 0-.893-.424-.893-1.25v-3.44c0-.375.05-.66.141-.854.14-.258.387-.39.745-.39.359 0 .598.126.724.383.092.18.134.465.134.862v1.896zm-5.525.327l-.26.194v1.015c0 .834-.288 1.258-.865 1.258-.583 0-.871-.424-.871-1.251v-3.426c0-.84.288-1.257.871-1.257.443 0 .71.243.809.736.042.146.056.556.056 1.223l1.49-1.487c.31-.312.611-.472.9-.472a.8.8 0 01.52.18c.14.118.21.285.21.48 0 .285-.147.555-.442.827l-1.174 1.063 1.63 1.868c.233.264.345.542.345.834a.61.61 0 01-.253.5.974.974 0 01-.57.181c-.344 0-.646-.167-.906-.514l-1.49-1.952zm-7.824-.507c0-.89.274-1.62.823-2.189.548-.57 1.272-.854 2.179-.854.478 0 .893.069 1.244.208.478.201.71.5.71.896a.693.693 0 01-.204.515.672.672 0 01-.52.215c-.134 0-.31-.049-.534-.132a1.799 1.799 0 00-.696-.132c-.394 0-.703.146-.914.444-.197.264-.295.598-.295 1 0 .425.098.758.302 1.015.232.278.555.417.97.417.246 0 .478-.041.682-.125a1.5 1.5 0 01.52-.125c.204 0 .366.07.492.216.127.145.19.319.19.52 0 .348-.246.64-.738.883-.352.174-.787.257-1.314.257-.88 0-1.59-.291-2.116-.882-.52-.563-.78-1.279-.78-2.147zm-3.795-1.487h-.745c-.725 0-1.09-.243-1.09-.73 0-.5.365-.743 1.09-.743h3.219c.738 0 1.104.243 1.104.743 0 .486-.373.73-1.111.73h-.752v3.21c0 .826-.282 1.25-.858 1.25-.57 0-.857-.423-.857-1.25v-3.21zm-5.989.847h2.305a1.039 1.039 0 00-.351-.73 1.142 1.142 0 00-.773-.284c-.31 0-.57.09-.78.278-.211.188-.345.43-.401.736zm.021 1.119c.035.326.176.584.422.758.246.173.548.263.9.263.295 0 .653-.09 1.068-.277.415-.188.675-.279.78-.279.457 0 .689.216.689.66a.8.8 0 01-.197.508c-.225.312-.597.549-1.096.715a4.288 4.288 0 01-1.329.209c-.864 0-1.589-.292-2.165-.875-.576-.584-.865-1.3-.865-2.148 0-.847.275-1.563.83-2.16.548-.605 1.251-.904 2.109-.904.428 0 .815.077 1.16.23.492.222.9.563 1.215 1.007.317.445.479.924.479 1.445 0 .285-.106.5-.317.646-.175.132-.414.202-.71.202H8.92zm-3.557 2.411H1.392c0 .493-.007.778-.021.855-.07.34-.253.507-.563.507-.54 0-.808-.278-.808-.834v-1.098c0-.354.084-.576.253-.653.155-.034.31-.062.464-.09.176-.077.26-.292.26-.646v-2.154c0-.632.176-1.084.52-1.369.316-.243.809-.368 1.47-.368h2.171c.352 0 .598.118.724.361.092.174.14.445.14.806v3.412c.507 0 .76.243.76.73v1.07c0 .555-.274.833-.815.833-.303 0-.485-.174-.549-.521-.02-.09-.035-.368-.035-.841zm-2.96-1.272h1.885v-3.21H2.98c-.267 0-.4.132-.4.39v2.133c0 .215-.057.444-.176.687z"
			fill="#003288" /></svg><svg fill="none" viewBox="0 0 65 22" id="logo-google"
		xmlns="http://www.w3.org/2000/svg">
		<g clip-path="url(#asclip0)">
			<path
				d="M27.488 11.127c0 3.042-2.38 5.284-5.3 5.284s-5.3-2.242-5.3-5.284c0-3.063 2.38-5.283 5.3-5.283s5.3 2.22 5.3 5.283zm-2.32 0c0-1.9-1.38-3.201-2.98-3.201-1.601 0-2.98 1.3-2.98 3.201 0 1.882 1.379 3.202 2.98 3.202 1.6 0 2.98-1.322 2.98-3.202z"
				fill="#EA4335" />
			<path
				d="M38.923 11.127c0 3.042-2.38 5.284-5.3 5.284-2.921 0-5.301-2.242-5.301-5.284 0-3.06 2.38-5.283 5.3-5.283s5.3 2.22 5.3 5.283zm-2.32 0c0-1.9-1.38-3.201-2.98-3.201-1.602 0-2.98 1.3-2.98 3.201 0 1.882 1.378 3.202 2.98 3.202 1.6 0 2.98-1.322 2.98-3.202z"
				fill="#FBBC05" />
			<path
				d="M49.88 6.163v9.486c0 3.902-2.3 5.495-5.021 5.495-2.56 0-4.102-1.712-4.683-3.113l2.02-.841c.36.86 1.24 1.875 2.66 1.875 1.742 0 2.821-1.075 2.821-3.097v-.76h-.08c-.52.64-1.52 1.2-2.783 1.2-2.642 0-5.063-2.3-5.063-5.262 0-2.982 2.42-5.302 5.063-5.302 1.26 0 2.26.56 2.782 1.181h.081v-.86h2.204v-.002zm-2.038 4.983c0-1.86-1.242-3.22-2.821-3.22-1.6 0-2.942 1.36-2.942 3.22 0 1.842 1.341 3.183 2.942 3.183 1.58 0 2.82-1.341 2.82-3.183z"
				fill="#4285F4" />
			<path d="M53.514.603v15.484H51.25V.603h2.264z" fill="#34A853" />
			<path
				d="M62.332 12.866l1.801 1.2c-.581.86-1.982 2.342-4.402 2.342-3.002 0-5.243-2.32-5.243-5.283 0-3.142 2.26-5.284 4.983-5.284 2.742 0 4.083 2.182 4.522 3.361l.24.6-7.063 2.926c.54 1.06 1.382 1.6 2.561 1.6 1.182 0 2.001-.58 2.601-1.462zm-5.543-1.9l4.721-1.961c-.26-.66-1.04-1.12-1.96-1.12-1.18 0-2.82 1.041-2.761 3.08z"
				fill="#EA4335" />
			<path
				d="M8.321 9.753V7.51h7.554c.074.39.112.853.112 1.353 0 1.682-.46 3.762-1.942 5.243-1.44 1.501-3.282 2.302-5.722 2.302C3.802 16.409 0 12.726 0 8.204 0 3.683 3.802 0 8.323 0c2.502 0 4.284.981 5.622 2.26l-1.581 1.582c-.96-.9-2.261-1.6-4.043-1.6-3.302 0-5.884 2.66-5.884 5.962 0 3.302 2.582 5.963 5.884 5.963 2.142 0 3.361-.86 4.143-1.642.633-.633 1.05-1.538 1.214-2.775l-5.357.003z"
				fill="#4285F4" />
		</g>
		<defs>
			<clipPath id="asclip0">
				<path fill="#fff" d="M0 0h64.233v22H0z" />
			</clipPath>
		</defs>
	</svg><svg fill="none" viewBox="0 0 24 24" id="logo-inst" xmlns="http://www.w3.org/2000/svg">
		<path
			d="M23.928 7.052c-.059-1.277-.261-2.15-.558-2.912a5.88 5.88 0 00-1.384-2.126A5.883 5.883 0 0019.86.63c-.763-.297-1.635-.5-2.912-.557C15.668.013 15.258 0 12 0 8.741 0 8.332.014 7.052.072 5.775.131 4.903.333 4.14.63a5.888 5.888 0 00-2.126 1.384A5.882 5.882 0 00.63 4.14c-.297.764-.5 1.636-.557 2.913C.013 8.332 0 8.741 0 12c0 3.259.014 3.668.073 4.948.058 1.277.26 2.149.557 2.912a5.88 5.88 0 001.384 2.126c.6.61 1.325 1.082 2.126 1.384.763.297 1.635.5 2.913.558C8.333 23.986 8.74 24 12 24s3.668-.014 4.948-.072c1.277-.059 2.15-.261 2.912-.558a6.135 6.135 0 003.51-3.51c.297-.763.5-1.635.558-2.912.058-1.28.072-1.69.072-4.948 0-3.26-.014-3.668-.072-4.948zm-2.16 9.797c-.053 1.17-.25 1.806-.413 2.228a3.974 3.974 0 01-2.278 2.278c-.423.164-1.058.36-2.228.413-1.265.058-1.645.07-4.849.07-3.205 0-3.584-.012-4.85-.07-1.169-.053-1.804-.249-2.227-.413a3.72 3.72 0 01-1.38-.898 3.718 3.718 0 01-.898-1.38c-.164-.422-.36-1.058-.413-2.228-.058-1.265-.07-1.645-.07-4.849s.012-3.584.07-4.849c.054-1.17.249-1.805.413-2.228.193-.522.5-.993.898-1.38a3.715 3.715 0 011.38-.898c.423-.164 1.058-.36 2.228-.413 1.265-.058 1.645-.07 4.849-.07s3.584.012 4.849.07c1.17.054 1.805.25 2.228.413.521.193.993.5 1.38.898.398.387.705.858.898 1.38.164.423.36 1.058.413 2.228.057 1.265.07 1.645.07 4.849s-.012 3.584-.07 4.85z"
			fill="url(#atpaint0_linear)" />
		<defs>
			<linearGradient id="atpaint0_linear" x1="2.014" y1="21.986" x2="21.986" y2="2.014"
				gradientUnits="userSpaceOnUse">
				<stop stop-color="#FFD600" />
				<stop offset=".5" stop-color="#FF0100" />
				<stop offset="1" stop-color="#D800B9" />
			</linearGradient>
		</defs>
	</svg><svg fill="none" viewBox="0 0 181 16" id="logo-pd" xmlns="http://www.w3.org/2000/svg">
		<g clip-path="url(#auclip0)">
			<path fill-rule="evenodd" clip-rule="evenodd"
				d="M35.722.458c-2.292.763-2.954 1.6-3.04 4.502-.042 1.586-.139 6.296.122 7.618.785 3.776 7.731 3.905 11.22 2.86 2.243-.677 2.68-1.636 2.723-4.434.042-2.066 0-3.917.042-5.473 0-3.074-.686-4.962-3.999-5.337-2.084-.252-5.22-.344-7.074.264h.006zM44.06 11.65V4.714c.055-1.95-2.814-1.698-4.254-1.698-1.58 0-4.34-.166-4.34 1.698v6.936c0 .971 1.216 1.334 2.596 1.432 1.265.045 2.532.008 3.792-.11 1.289-.098 2.127-.461 2.182-1.335l.024.013zM18.423.063c3.355 0 7.127-.232 9.2.194 2.074.426 3.16 1.742 3.16 4.387 0 4.387-1.375 5.64-4.423 5.96a1.708 1.708 0 01-.264 0c-1.803.157-4.183 0-7.194 0v3.93c0 .388-.151.761-.42 1.036a1.42 1.42 0 01-1.015.43 1.42 1.42 0 01-1.015-.43 1.483 1.483 0 01-.42-1.037v-2.506c-.056-1.843 0-4.024 0-5.847 0-1.486.055-3.078 0-4.563a1.345 1.345 0 01.238-.979 1.298 1.298 0 01.847-.519c.43-.063.866-.082 1.3-.056h.006zm7.735 2.958h-7.25v4.688h6.379c1.84 0 2.784-.126 2.864-2.269.08-2.143-.54-2.375-1.993-2.419z"
				fill="#EC2327" />
			<path
				d="M14.16 14.526V5.618c.012-3.123-.703-5.04-4.017-5.423-2.079-.245-5.23-.358-7.09.27C.777 1.232.11 2.08.025 5.034c0 1.137-.054 3.852 0 5.826v3.65a1.483 1.483 0 00.42 1.039c.132.136.289.243.461.316a1.398 1.398 0 001.546-.319c.266-.273.418-.646.42-1.035V4.782c0-1.89 2.77-1.721 4.357-1.721 1.412 0 4.205-.252 4.15 1.722v9.753a1.5 1.5 0 00.42 1.038c.132.136.29.243.461.316a1.387 1.387 0 001.541-.32c.266-.273.36-.655.36-1.044z"
				fill="#EC2327" />
			<path fill-rule="evenodd" clip-rule="evenodd"
				d="M48.636 14.532a1.51 1.51 0 01.423-1.046 1.42 1.42 0 011.014-.435h.953L57.243.8c.134-.263.341-.48.595-.62.253-.142.542-.202.829-.174a1.4 1.4 0 01.82.176c.25.141.454.356.586.618l6.216 12.25h.611c.381.002.745.158 1.014.435.27.278.421.653.423 1.046a1.514 1.514 0 01-.423 1.04A1.394 1.394 0 0166.9 16H50.072a1.394 1.394 0 01-1.014-.426 1.514 1.514 0 01-.423-1.04zM58.666 4.38l-4.406 8.67h8.796l-4.39-8.67zM87.775.056c.207 0 .412.04.603.114.192.074.365.183.51.32.147.136.262.298.34.476.079.178.12.37.118.562v4.32l8.503-5.58a1.702 1.702 0 011.18-.248c.412.063.783.274 1.031.587a1.378 1.378 0 01.043 1.638 1.5 1.5 0 01-.427.416l-8.091 5.336 8.091 5.336c.343.226.576.568.648.953.073.385-.023.781-.264 1.101a1.633 1.633 0 01-1.03.592 1.71 1.71 0 01-1.181-.241l-8.503-5.587v4.384c0 .192-.04.381-.12.558a1.451 1.451 0 01-.34.472c-.147.135-.32.242-.51.315a1.67 1.67 0 01-.6.108 1.65 1.65 0 01-1.115-.424 1.42 1.42 0 01-.47-1.029V1.528c.003-.39.171-.762.468-1.037a1.662 1.662 0 011.116-.435zm23.03 2.892v11.59a1.449 1.449 0 01-.449 1.032 1.558 1.558 0 01-1.654.32 1.513 1.513 0 01-.494-.316 1.426 1.426 0 01-.446-1.036V2.949h-4.029c-.406 0-.794-.154-1.082-.43a1.459 1.459 0 01-.454-1.038c.004-.391.166-.766.454-1.043A1.574 1.574 0 01103.733 0h11.102a1.563 1.563 0 011.079.436c.141.138.253.3.329.48a1.443 1.443 0 01-.331 1.602c-.286.275-.673.43-1.077.43h-4.03zm59.103 3.477h5.798c2.047 0 2.824.07 2.824-1.678 0-1.258-.468-1.792-2.824-1.792h-5.798v3.47zm0 6.633h7.311c1.056-.227 1.311-.755 1.311-1.679 0-1.748-.777-1.672-2.824-1.672h-5.798v3.363-.012zM177.356 16h-9.121c-.367.002-.72-.15-.982-.424a1.521 1.521 0 01-.413-1.035V1.477c.002-.39.148-.764.408-1.04.261-.277.613-.434.981-.437h7.803c2.534 0 4.961 1.037 4.961 4.162.04 1.02-.09 2.04-.386 3.011-.062.169-.14.331-.231.484a.859.859 0 00.071.893c.076.161.144.327.201.497.263.935.379 1.91.345 2.885a4.271 4.271 0 01-1.08 2.775 3.82 3.82 0 01-2.564 1.274l.007.019zM73.276.458c-2.291.763-2.954 1.6-3.039 4.502-.042 1.586-.14 6.296.122 7.618.784 3.776 7.737 3.905 11.225 2.86 2.237-.677 2.674-1.636 2.717-4.434.043-2.066 0-3.917.043-5.473 0-3.074-.687-4.962-4-5.337-2.084-.252-5.22-.344-7.074.264h.006zm8.339 11.192V4.714c.054-1.95-2.815-1.698-4.255-1.698-1.58 0-4.339-.166-4.339 1.698v6.936c0 .971 1.215 1.334 2.595 1.432 1.265.045 2.532.008 3.792-.11 1.289-.098 2.128-.461 2.183-1.335l.024.013zM121.299.458c-2.285.763-2.961 1.6-3.045 4.502-.043 1.586-.135 6.296.139 7.618.768 3.776 7.747 3.905 11.229 2.86 2.241-.677 2.686-1.636 2.741-4.434V5.531c.03-3.074-.688-4.962-4.001-5.337-2.082-.252-5.219-.344-7.088.264h.025zm8.342 11.192V4.714c.055-1.95-2.825-1.698-4.263-1.698-1.577 0-4.347-.166-4.347 1.698v6.936c0 .971 1.217 1.334 2.618 1.432 1.261.045 2.525.008 3.781-.11 1.298-.098 2.132-.461 2.192-1.335l.019.013zM153.922.458c-2.298.763-2.955 1.6-3.04 4.502-.037 1.586-.134 6.296.128 7.618.784 3.776 7.733 3.905 11.223 2.86 2.244-.677 2.682-1.636 2.724-4.434.036-2.066 0-3.917.036-5.473 0-3.074-.687-4.962-3.994-5.337-2.091-.252-5.223-.344-7.077.264zm8.366 11.192V4.714c.054-1.95-2.821-1.698-4.256-1.698-1.581 0-4.348-.166-4.348 1.698v6.936c0 .971 1.217 1.334 2.603 1.432 1.264.045 2.529.008 3.788-.11 1.295-.098 2.134-.461 2.189-1.335l.024.013zM136.817.047c3.363 0 6.925-.2 8.995.226 2.071.426 3.175 1.743 3.175 4.39 0 4.389-1.373 5.643-4.418 5.97a1.79 1.79 0 01-.264 0c-1.838.156-4.197.03-7.187.03v3.87c0 .389-.151.762-.42 1.037-.269.275-.633.43-1.013.43-.381 0-.745-.155-1.014-.43a1.485 1.485 0 01-.421-1.037v-2.509c-.066-1.843-.036-4.026 0-5.857 0-1.486.044-3.072 0-4.558-.05-.347.035-.7.239-.983.203-.282.508-.47.846-.522.426-.06.857-.079 1.287-.057h.195zm7.501 2.985h-7.206v4.69h6.36c1.838 0 2.794-.125 2.88-2.263.085-2.138-.545-2.383-2.041-2.427h.007z"
				fill="#117DC1" />
		</g>
		<defs>
			<clipPath id="auclip0">
				<path fill="#fff" d="M0 0h181v16H0z" />
			</clipPath>
		</defs>
	</svg><svg fill="none" viewBox="0 0 170 20" id="logo-sber" xmlns="http://www.w3.org/2000/svg">
		<g clip-path="url(#avclip0)">
			<path fill-rule="evenodd" clip-rule="evenodd"
				d="M111.557 9.715c0-3.777-2.484-6.032-6.208-6.05-3.773 0-6.208 2.489-6.208 6.017 0 3.793 2.483 6.05 6.208 6.05 3.773 0 6.208-2.49 6.208-6.017zm-2.184-.017c0 2.457-1.541 4.112-4.008 4.112v-.002c-2.649-.017-4.04-1.822-4.04-4.11 0-2.44 1.525-4.094 4.008-4.11 2.649.016 4.04 1.82 4.04 4.11zm27.297.017c0-3.777-2.483-6.032-6.208-6.05-3.774 0-6.207 2.489-6.209 6.017 0 3.793 2.484 6.05 6.209 6.05 3.774 0 6.208-2.49 6.208-6.017zm-2.184-.017c0 2.457-1.541 4.112-4.008 4.112l.001-.002c-2.649-.017-4.04-1.822-4.04-4.11 0-2.44 1.524-4.094 4.008-4.11 2.648.016 4.039 1.82 4.039 4.11zm4.353 5.848V3.848h5.032c2.584 0 3.908.968 3.908 2.907 0 1.337-.53 2.223-1.722 2.691 1.424.25 2.07 1.17 2.07 2.69 0 2.424-1.722 3.41-4.537 3.41h-4.751zm4.735-6.752c1.308 0 2.135-.585 2.135-1.588 0-.935-.613-1.437-2.085-1.437h-2.715v3.025h2.665zm.151 4.83c1.588 0 2.317-.519 2.317-1.638 0-1.12-.827-1.555-2.284-1.555h-2.847v3.193h2.814zm10.394-6.134h-1.573V3.848h-2.068v11.698h3.661c3.377 0 5.198-1.371 5.198-4.095 0-2.64-1.543-3.96-5.218-3.96zm-1.573 6.134V9.412h1.755c2.02 0 2.897.552 2.897 1.989 0 1.588-.993 2.223-2.93 2.223h-1.722z"
				fill="#FF0D65" />
			<path d="M163.572 10.482h5.331l.002-1.922h-5.33V5.769h5.943V3.848h-8.016v11.698h8.195v-1.922h-6.125v-3.142z"
				fill="#FF0D65" />
			<path fill-rule="evenodd" clip-rule="evenodd"
				d="M115.792 11.902v3.644h-2.07V3.848h3.857c3.658 0 5.217 1.32 5.217 3.96 0 2.724-1.82 4.095-5.217 4.095h-1.787zm0-6.133V9.98h1.936c1.921 0 2.914-.635 2.914-2.222 0-1.437-.86-1.989-2.88-1.989h-1.97zm-28.389 7.855c.662-1.588 1.142-3.794 1.192-7.353l.033-2.423h8.145v9.776h1.34v4.094h-1.936v-2.172h-8.096v2.172h-1.936v-4.094h1.258zm2.02 0h5.28V5.769h-4.187v.552c-.067 3.058-.434 5.465-1.093 7.303z"
				fill="#FF0D65" />
			<path
				d="M80.185 3.68c-1.838 0-3.178.552-3.84 1.036l-.002 2.908c.679-1.036 2.086-2.055 3.84-2.022 1.225.033 2.185.468 2.185 1.554 0 .87-.513 1.588-2.002 1.588h-1.74v1.721h1.755c1.805 0 2.566.485 2.566 1.52 0 1.188-1.125 1.79-2.532 1.806-2.137.017-3.643-.92-4.354-2.106v2.574c.615.701 2.217 1.47 4.32 1.454 3.113-.017 4.718-1.57 4.718-3.593 0-1.538-.858-2.474-2.646-2.741 1.341-.485 2.052-1.387 2.052-2.757 0-2.056-1.721-2.925-4.32-2.942z"
				fill="#FF0D65" />
			<path
				d="M31.426 13.453a4.453 4.453 0 002.155-.542l.553-.3 1.615 1.194c-1.066 1.145-2.636 1.775-4.436 1.775-1.72 0-3.292-.613-4.417-1.717S25.15 11.225 25.15 9.56c0-1.667.63-3.178 1.752-4.243 1.122-1.064 2.694-1.65 4.426-1.65 1.597 0 2.994.487 4.04 1.409l.118.1-1.79 1.325a3.8 3.8 0 00-2.271-.713c-2.25 0-3.884 1.612-3.884 3.833s1.633 3.833 3.884 3.833z"
				fill="#21A038" />
			<path fill-rule="evenodd" clip-rule="evenodd"
				d="M43.399 8.34H40.36V5.749h4.849l2.613-1.932h-9.958v11.61h5.209c2.923 0 4.6-1.33 4.6-3.648.002-2.216-1.517-3.437-4.275-3.437zm-.435 5.152h-2.603v-3.218h2.603c1.585 0 2.322.539 2.322 1.61 0 1.093-.784 1.608-2.322 1.608z"
				fill="#21A038" />
			<path d="M58.747 3.816l-2.614 1.932h-3.636v2.839h5.331v1.933h-5.331v2.972h6.25v1.933H50V3.815h8.746z"
				fill="#21A038" />
			<path fill-rule="evenodd" clip-rule="evenodd"
				d="M61.07 3.816h4.763c3.038 0 4.925 1.592 4.925 4.154 0 2.563-1.888 4.167-4.926 4.167h-2.265v3.288h-2.496V3.815zm2.497 6.388h2.212c1.6 0 2.48-.791 2.48-2.228 0-1.436-.88-2.228-2.48-2.228h-2.212v4.455z"
				fill="#21A038" />
			<path d="M17.255 3.769a9.74 9.74 0 011.154 1.927L9.633 12.21 5.966 9.895V7.111l3.667 2.314 7.622-5.656z"
				fill="#21A038" />
			<path
				d="M2.225 9.699c0-.125.003-.25.01-.372L.011 9.215a9.703 9.703 0 002.81 7.343l1.575-1.587A7.467 7.467 0 012.225 9.7z"
				fill="url(#avpaint0_linear)" />
			<path
				d="M9.633 2.24c.124 0 .247.005.37.01l.11-2.238a9.57 9.57 0 00-7.292 2.829l1.576 1.586A7.359 7.359 0 019.633 2.24z"
				fill="url(#avpaint1_linear)" />
			<path
				d="M9.632 17.158c-.124 0-.247-.003-.37-.01l-.11 2.238a9.57 9.57 0 007.292-2.829l-1.576-1.586a7.364 7.364 0 01-5.236 2.187z"
				fill="url(#avpaint2_linear)" />
			<path d="M13.809 3.542l1.873-1.39A9.548 9.548 0 009.632 0v2.24a7.33 7.33 0 014.177 1.302z"
				fill="url(#avpaint3_linear)" />
			<path
				d="M19.265 9.699c0-.593-.053-1.174-.155-1.738l-2.073 1.538a7.465 7.465 0 01-2.437 5.727l1.495 1.665a9.703 9.703 0 003.17-7.192z"
				fill="#21A038" />
			<path d="M9.633 17.157a7.367 7.367 0 01-5.49-2.457L2.49 16.206a9.578 9.578 0 007.143 3.192v-2.24z"
				fill="url(#avpaint4_linear)" />
			<path d="M4.665 4.17L3.17 2.508A9.704 9.704 0 000 9.699h2.225a7.469 7.469 0 012.44-5.528z"
				fill="url(#avpaint5_linear)" />
		</g>
		<defs>
			<linearGradient id="avpaint0_linear" x1="3.272" y1="16.277" x2=".81" y2="9.211"
				gradientUnits="userSpaceOnUse">
				<stop offset=".144" stop-color="#F2E913" />
				<stop offset=".304" stop-color="#E7E518" />
				<stop offset=".582" stop-color="#CADB26" />
				<stop offset=".891" stop-color="#A3CD39" />
			</linearGradient>
			<linearGradient id="avpaint1_linear" x1="3.457" y1="3.237" x2="9.73" y2=".863"
				gradientUnits="userSpaceOnUse">
				<stop offset=".059" stop-color="#0FA8E0" />
				<stop offset=".538" stop-color="#0099F9" />
				<stop offset=".923" stop-color="#0291EB" />
			</linearGradient>
			<linearGradient id="avpaint2_linear" x1="9.004" y1="18.046" x2="16.09" y2="16.456"
				gradientUnits="userSpaceOnUse">
				<stop offset=".123" stop-color="#A3CD39" />
				<stop offset=".285" stop-color="#86C339" />
				<stop offset=".869" stop-color="#21A038" />
			</linearGradient>
			<linearGradient id="avpaint3_linear" x1="9.167" y1=".751" x2="15.229" y2="2.608"
				gradientUnits="userSpaceOnUse">
				<stop offset=".057" stop-color="#0291EB" />
				<stop offset=".79" stop-color="#0C8ACB" />
			</linearGradient>
			<linearGradient id="avpaint4_linear" x1="3.048" y1="15.933" x2="9.649" y2="18.383"
				gradientUnits="userSpaceOnUse">
				<stop offset=".132" stop-color="#F2E913" />
				<stop offset=".298" stop-color="#EBE716" />
				<stop offset=".531" stop-color="#D9E01F" />
				<stop offset=".802" stop-color="#BBD62D" />
				<stop offset=".983" stop-color="#A3CD39" />
			</linearGradient>
			<linearGradient id="avpaint5_linear" x1=".829" y1="9.97" x2="3.507" y2="3.053"
				gradientUnits="userSpaceOnUse">
				<stop offset=".07" stop-color="#A3CD39" />
				<stop offset=".26" stop-color="#81C55F" />
				<stop offset=".922" stop-color="#0FA8E0" />
			</linearGradient>
			<clipPath id="avclip0">
				<path fill="#fff" d="M0 0h169.697v20H0z" />
			</clipPath>
		</defs>
	</svg><svg fill="none" viewBox="0 0 58 22" id="logo-ya" xmlns="http://www.w3.org/2000/svg">
		<g clip-path="url(#awclip0)">
			<path
				d="M5.7 11.99l-3.26 7.32H.062l3.58-7.829C1.96 10.626.837 9.077.837 6.217.837 2.21 3.375.205 6.395.205h3.073v19.106H7.41v-7.322H5.7zM7.41 1.941H6.315c-1.657 0-3.26 1.096-3.26 4.275 0 3.073 1.47 4.062 3.26 4.062H7.41V1.942z"
				fill="red" />
			<path
				d="M19.381 5.843v13.468h-2.057v-6.04h-3.1v6.04H12.14V5.843h2.084v5.719h3.1V5.843h2.057zm10.715 16.113h-1.87v-2.645h-5.772v2.645h-1.87v-4.355h.828c1.23-2.86 1.363-7.028 1.363-10.609V5.843h6.253v11.758h1.069v4.355zM26.97 7.526h-2.325v.241c0 2.833-.133 6.974-1.256 9.834h3.581V7.527zm8.872 11.972c-2.78 0-4.49-2.218-4.49-6.36 0-4.329 1.203-7.482 4.062-7.482 2.245 0 3.714 1.684 3.714 6.253v1.15h-5.611c0 3.045.855 4.649 2.511 4.649 1.176 0 2.112-.535 2.646-.909l.481 1.603a5.304 5.304 0 01-3.313 1.096zm-2.298-8.15h3.447c0-2.298-.375-3.982-1.577-3.982-1.283 0-1.737 1.577-1.87 3.982zm9.806 1.256v6.707h-2.084V5.843h2.084v6.226l3.233-6.226h2.111l-3.34 6.333 3.821 7.135h-2.27l-3.555-6.707zm6.093-.027c0-4.222 1.63-6.92 4.783-6.92 1.202 0 1.897.32 2.485.694l-.294 1.977c-.561-.48-1.363-.935-2.218-.935-1.496 0-2.565 1.684-2.565 5.077 0 3.367.801 5.29 2.485 5.29a3.403 3.403 0 002.271-.827l.481 1.55a4.077 4.077 0 01-2.806 1.015c-2.886 0-4.622-2.325-4.622-6.92z"
				fill="#000" />
		</g>
		<defs>
			<clipPath id="awclip0">
				<path fill="#fff" d="M0 0h57.037v22H0z" />
			</clipPath>
		</defs>
	</svg><svg fill="none" viewBox="0 0 24 22" id="star" xmlns="http://www.w3.org/2000/svg">
		<path
			d="M12 0l2.694 8.292h8.719l-7.054 5.124 2.694 8.292L12 16.584l-7.053 5.124 2.694-8.292L.587 8.292h8.719L12 0z"
			fill="#FFD601" /></svg><svg fill="none" viewBox="0 0 24 22" id="star-empty"
		xmlns="http://www.w3.org/2000/svg">
		<path
			d="M12 0l2.694 8.292h8.719l-7.054 5.124 2.694 8.292L12 16.584l-7.053 5.124 2.694-8.292L.587 8.292h8.719L12 0z"
			fill="#E3EEF4" /></svg><svg fill="none" viewBox="0 0 184 183" id="v-aqua"
		xmlns="http://www.w3.org/2000/svg">
		<path
			d="M158.326 32.875c17.896 19.667 28.062 45.164 25.193 71.664-2.997 27.689-16.472 54.149-40.343 68.282-23.909 14.154-53.089 12.182-79.079 2.417-26.342-9.897-49.95-27.674-59.205-54.372C-4.673 93.274.068 62.382 16.66 38.392 32.932 14.862 59.957 1.166 88.441.056c27.03-1.052 51.625 12.753 69.885 32.819z"
			fill="#7BBBA9" /></svg><svg fill="none" viewBox="0 0 74 75" id="v-blue" xmlns="http://www.w3.org/2000/svg">
		<path
			d="M55.294 5.396C65.472 11.36 72.874 21.44 73.9 32.969c.991 11.14-5.449 21.112-13.57 29.012-8.033 7.814-18.226 13.915-29.53 12.91-11.485-1.02-21.574-8.168-27.237-17.957-5.318-9.195-3.977-20.077-.558-30.093C6.475 16.676 11.974 6.776 22.107 2.62 32.874-1.796 45.283-.47 55.294 5.396z"
			fill="#0677EC" /></svg><svg fill="none" viewBox="0 0 62 59" id="v-dblue" xmlns="http://www.w3.org/2000/svg">
		<path
			d="M47.635 3.021c8.21 4.702 13.028 13.485 14.13 22.795 1.102 9.298-1.67 18.798-8.427 25.361-6.652 6.46-16.208 8.632-25.474 7.563-9.147-1.054-17.599-5.511-22.657-13.113C.052 37.883-1.584 28.108 1.7 19.426c3.191-8.434 11.168-13.64 19.74-16.701 8.64-3.086 18.246-4.255 26.194.296z"
			fill="#34358C" /></svg><svg fill="none" viewBox="0 0 192 195" id="v-green"
		xmlns="http://www.w3.org/2000/svg">
		<path
			d="M143.466 14.029c26.408 15.507 45.61 41.714 48.272 71.69 2.572 28.963-14.137 54.893-35.209 75.431-20.843 20.316-47.289 36.181-76.618 33.568-29.8-2.655-55.975-21.237-70.668-46.69-13.8-23.908-10.32-52.2-1.448-78.24 9.005-26.43 23.271-52.17 49.563-62.976 27.935-11.481 60.134-8.035 86.108 7.217z"
			fill="#42A53B" /></svg><svg fill="none" viewBox="0 0 74 75" id="v-main-blue"
		xmlns="http://www.w3.org/2000/svg">
		<path
			d="M55.294 5.396C65.472 11.36 72.874 21.44 73.9 32.969c.991 11.14-5.449 21.112-13.57 29.012-8.033 7.814-18.226 13.915-29.53 12.91-11.485-1.02-21.574-8.168-27.237-17.957-5.318-9.195-3.977-20.077-.558-30.093C6.475 16.676 11.974 6.776 22.107 2.62 32.874-1.796 45.283-.47 55.294 5.396z"
			fill="#0677EC" /></svg><svg fill="none" viewBox="0 0 48 48" id="v-main-blue-2"
		xmlns="http://www.w3.org/2000/svg">
		<path
			d="M31.342 1.238c7.177 2.528 11.094 9.385 13.757 16.29 2.662 6.902 4.628 14.721.62 20.99-3.972 6.21-12.107 7.697-19.603 8.698-7.573 1.01-16.047 1.918-21.544-3.205C-.913 38.9-.294 30.706.557 23.395c.823-7.073 2.655-14.28 8.571-18.538C15.46.3 23.921-1.376 31.342 1.237z"
			fill="#0677EC" /></svg><svg fill="none" viewBox="0 0 11 11" id="v-main-green"
		xmlns="http://www.w3.org/2000/svg">
		<path
			d="M9.465 1.976c1.07 1.182 1.678 2.715 1.506 4.308-.179 1.664-.984 3.255-2.412 4.104-1.429.85-3.173.732-4.727.146C2.257 9.938.846 8.87.292 7.264-.279 5.607.004 3.75.996 2.308 1.969.893 3.584.07 5.287.003 6.903-.06 8.374.77 9.465 1.976z"
			fill="#42A53B" /></svg><svg fill="none" viewBox="0 0 208 215" id="v-main-grey"
		xmlns="http://www.w3.org/2000/svg">
		<path
			d="M135.817 5.545c31.1 11.324 48.073 42.036 59.612 72.966 11.535 30.917 20.056 65.939 2.687 94.016-17.211 27.821-52.464 34.478-84.948 38.961-32.814 4.528-69.536 8.591-93.354-14.354-23.772-22.901-21.088-59.597-17.402-92.342C5.98 73.107 13.92 40.827 39.556 21.754c27.436-20.411 64.103-27.919 96.261-16.21z"
			fill="#F2F6F9" /></svg><svg fill="none" viewBox="0 0 66 68" id="v-main-grey-2"
		xmlns="http://www.w3.org/2000/svg">
		<path
			d="M43.096 1.754C52.964 5.335 58.35 15.049 62.01 24.83c3.66 9.779 6.364 20.855.853 29.736-5.461 8.799-16.647 10.904-26.955 12.322-10.412 1.432-22.064 2.717-29.622-4.54C-1.256 55.106-.404 43.5.765 33.144 1.897 23.122 4.417 12.913 12.551 6.88c8.706-6.455 20.34-8.83 30.545-5.126z"
			fill="#F2F6F9" /></svg><svg fill="none" viewBox="0 0 104 104" id="v-main-grey-3"
		xmlns="http://www.w3.org/2000/svg">
		<path
			d="M78.138 7.667c13.31 7.66 21.439 20.93 24.381 35.654 3.063 15.335 1.902 31.846-8.515 43.768-10.778 12.336-27.707 18.072-44.332 16.716-16.17-1.319-30.152-10.608-39.373-23.543C1.175 67.463-2.535 51.65 1.819 36.678 6.23 21.505 17.575 8.908 32.723 3.15c14.904-5.666 31.65-3.406 45.415 4.517z"
			fill="#F2F6F9" /></svg><svg fill="none" viewBox="0 0 56 59" id="v-main-grey-4"
		xmlns="http://www.w3.org/2000/svg">
		<path
			d="M34.82 2.824c4.7 1.725 8.778 4.495 12.276 8.032 3.631 3.673 7.005 7.72 8.225 12.702 1.277 5.212.697 10.708-1.267 15.708-2.024 5.155-5.536 9.56-9.98 12.937-4.685 3.558-10.063 7.1-15.97 6.776-5.82-.319-10.45-4.664-14.816-8.464C9.48 47.2 6.873 43.02 4.62 38.535 2.328 33.972-.57 29.298.097 24.25c.668-5.05 4.861-8.693 8.085-12.676 3.323-4.106 5.98-9.291 11.04-10.953 5.085-1.67 10.575.358 15.598 2.203z"
			fill="#E3EEF4" /></svg><svg fill="none" viewBox="0 0 334 356" id="v-main-grey-5"
		xmlns="http://www.w3.org/2000/svg">
		<path
			d="M207.679 17.039c28.025 10.41 52.353 27.121 73.214 48.466 21.658 22.16 41.781 46.582 49.058 76.643 7.613 31.448 4.154 64.608-7.558 94.781-12.072 31.103-33.016 57.682-59.527 78.055-27.937 21.47-60.015 42.845-95.251 40.891-34.706-1.924-62.323-28.141-88.36-51.073-22.711-20.003-38.265-45.218-51.701-72.285C13.884 204.982-3.397 176.783.58 146.323c3.98-30.469 28.994-52.456 48.22-76.488 19.818-24.773 35.67-56.061 65.84-66.087 30.334-10.08 63.077 2.161 93.038 13.29z"
			fill="url(#bkpaint0_linear)" />
		<defs>
			<linearGradient id="bkpaint0_linear" x1="167" y1="0" x2="167" y2="356" gradientUnits="userSpaceOnUse">
				<stop stop-color="#E3EEF4" />
				<stop offset="1" stop-color="#E3EEF4" stop-opacity="0" />
			</linearGradient>
		</defs>
	</svg><svg fill="none" viewBox="0 0 56 59" id="v-main-grey-6" xmlns="http://www.w3.org/2000/svg">
		<path
			d="M34.82 2.824c4.7 1.725 8.778 4.495 12.276 8.032 3.631 3.673 7.005 7.72 8.225 12.702 1.277 5.212.697 10.708-1.267 15.708-2.024 5.155-5.536 9.56-9.98 12.937-4.685 3.558-10.063 7.1-15.97 6.776-5.82-.319-10.45-4.664-14.816-8.464C9.48 47.2 6.873 43.02 4.62 38.535 2.328 33.972-.57 29.298.097 24.25c.668-5.05 4.861-8.693 8.085-12.676 3.323-4.106 5.98-9.291 11.04-10.953 5.085-1.67 10.575.358 15.598 2.203z"
			fill="#E3EEF4" /></svg><svg fill="none" viewBox="0 0 176 165" id="v-main-grey-7"
		xmlns="http://www.w3.org/2000/svg">
		<path
			d="M126.667 10.265c23.933 12.453 42.252 34.026 47.495 60.462 5.377 27.108-.93 56.487-20.406 76.119-18.403 18.552-46.384 19.283-72.473 17.51-25.293-1.72-51.64-6.887-67.043-26.994-15.87-20.715-17.274-48.61-10.09-73.686 7.138-24.92 23.661-46.35 47.448-56.72 24.152-10.529 51.699-8.85 75.069 3.31z"
			fill="#E3EEF4" /></svg><svg fill="none" viewBox="0 0 413 531" id="v-main-l"
		xmlns="http://www.w3.org/2000/svg">
		<path
			d="M207.679-26.961c28.025 10.41 52.353 27.121 73.214 48.466 21.658 22.16 41.781 46.582 49.058 76.643 7.613 31.448 4.154 64.608-7.558 94.781-12.072 31.103-33.016 57.682-59.527 78.055-27.937 21.47-60.015 42.845-95.251 40.891-34.706-1.924-62.323-28.141-88.36-51.073-22.711-20.003-38.265-45.218-51.701-72.285C13.884 160.982-3.397 132.783.58 102.323c3.98-30.47 28.994-52.456 48.22-76.488 19.818-24.773 35.67-56.062 65.84-66.087 30.334-10.08 63.077 2.161 93.038 13.29z"
			fill="#E3EEF4" />
		<path
			d="M243.647 200.326c52.559-1.745 110.417 2.279 143.642 43.083 33.56 41.215 29.655 100.022 14.339 150.936-13.966 46.429-48.379 80.995-91.024 103.99-45.97 24.787-98.75 44.526-146.898 24.3-50.642-21.273-83.552-71.463-93.903-125.455-9.948-51.885 7.166-105.044 42.123-144.628 32.908-37.263 82.062-50.577 131.721-52.226z"
			fill="#E3EEF4" /></svg><svg fill="none" viewBox="0 0 312 546" id="v-main-r"
		xmlns="http://www.w3.org/2000/svg">
		<path
			d="M229.311-11.767c40.115 20.905 70.82 57.122 79.608 101.503 9.012 45.509-1.559 94.829-34.202 127.787-30.847 31.145-77.747 32.373-121.476 29.395-42.394-2.886-86.554-11.562-112.374-45.317-26.6-34.775-28.953-81.606-16.912-123.703C35.92 36.063 63.615.086 103.486-17.322c40.481-17.676 86.653-14.858 125.825 5.555zm-44.65 303.216c34.141 18.668 47.438 58.801 53.678 97.287 6.074 37.464 2.777 76.436-20.684 106.223-24.963 31.695-62.832 53.218-103.042 50.865-39.711-2.322-73.085-29.023-94.804-62.438C-.53 452.094-4.996 413.717 5.44 377.863c10.25-35.217 35.167-63.315 68.14-79.214 35.181-16.963 76.808-25.939 111.08-7.2z"
			fill="#E3EEF4" /></svg><svg fill="none" viewBox="0 0 323 378" id="v-main-r-2"
		xmlns="http://www.w3.org/2000/svg">
		<path
			d="M232.463 18.85c43.922 22.868 77.541 62.484 87.164 111.031 9.867 49.78-1.708 103.73-37.449 139.782-33.775 34.068-85.126 35.41-133.006 32.154-46.417-3.158-94.769-12.647-123.04-49.571-29.125-38.039-31.7-89.265-18.517-135.314C20.717 71.17 51.04 31.816 94.695 12.774 139.018-6.561 189.573-3.48 232.463 18.85z"
			fill="#E3EEF4" />
		<path
			d="M157.817 168.545c31.1 11.324 48.073 42.036 59.612 72.966 11.535 30.917 20.056 65.939 2.687 94.016-17.211 27.821-52.464 34.478-84.948 38.961-32.814 4.528-69.536 8.591-93.354-14.354-23.772-22.901-21.088-59.597-17.402-92.342 3.567-31.685 11.507-63.965 37.144-83.038 27.436-20.411 64.103-27.919 96.261-16.209z"
			fill="url(#bppaint0_linear)" />
		<defs>
			<linearGradient id="bppaint0_linear" x1="126" y1="163" x2="126" y2="378" gradientUnits="userSpaceOnUse">
				<stop stop-color="#F2F6F9" />
				<stop offset="1" stop-color="#F2F6F9" stop-opacity="0" />
			</linearGradient>
		</defs>
	</svg><svg fill="none" viewBox="0 0 62 59" id="v-main-violet" xmlns="http://www.w3.org/2000/svg">
		<path
			d="M47.635 3.021c8.21 4.702 13.028 13.485 14.13 22.795 1.102 9.298-1.67 18.798-8.427 25.361-6.652 6.46-16.208 8.632-25.474 7.563-9.147-1.054-17.599-5.511-22.657-13.113C.052 37.883-1.584 28.108 1.7 19.426c3.191-8.434 11.168-13.64 19.74-16.701 8.64-3.086 18.246-4.255 26.194.296z"
			fill="#34358C" /></svg><svg fill="none" viewBox="0 0 23 25" id="v-main-yellow"
		xmlns="http://www.w3.org/2000/svg">
		<path
			d="M14.301 23.803c1.93-.73 3.605-1.904 5.042-3.403 1.491-1.556 2.877-3.271 3.378-5.382.524-2.209.286-4.537-.52-6.656-.832-2.184-2.274-4.051-4.1-5.482C16.179 1.373 13.97-.128 11.543.01c-2.39.135-4.291 1.976-6.084 3.586C3.894 5 2.823 6.771 1.898 8.672.955 10.605-.235 12.585.04 14.725s1.997 3.683 3.32 5.37c1.365 1.74 2.457 3.938 4.534 4.642 2.09.708 4.344-.152 6.407-.933z"
			fill="#FFD601" /></svg><svg fill="none" viewBox="0 0 33 32" id="v-main-yellow-2"
		xmlns="http://www.w3.org/2000/svg">
		<path
			d="M18.48.046c4.867.392 9.587 2.533 12.228 6.616 2.711 4.191 2.886 9.462 1.211 14.158-1.694 4.751-5.172 8.785-9.972 10.406-4.821 1.628-10.095.588-14.35-2.193C3.387 26.28.306 21.895.018 16.891c-.273-4.785 2.634-8.964 6.186-12.204C9.597 1.59 13.889-.325 18.48.046z"
			fill="#FFD601" /></svg><svg fill="none" viewBox="0 0 24 23" id="v-main-yellow-3"
		xmlns="http://www.w3.org/2000/svg">
		<path
			d="M13.44.033c3.54.282 6.973 1.821 8.893 4.756 1.972 3.012 2.1 6.8.881 10.175-1.232 3.415-3.762 6.315-7.253 7.48-3.506 1.17-7.341.423-10.435-1.576C2.462 18.888.222 15.737.013 12.14c-.2-3.439 1.915-6.442 4.498-8.771C6.979 1.143 10.1-.233 13.44.033z"
			fill="#FFD601" /></svg><svg fill="none" viewBox="0 0 28 35" id="v-main-yellow-4"
		xmlns="http://www.w3.org/2000/svg">
		<path
			d="M26.05 9.087c1.853 3.122.159 6.701.188 10.321.04 5.041 3.94 11.165.008 14.374-3.955 3.228-9.612-.772-14.378-2.645-4.479-1.76-9.876-3.003-11.457-7.503-1.589-4.525 1.768-8.885 4.258-12.993C7.322 6.264 9.577.393 14.724.019c5.097-.37 8.738 4.71 11.325 9.068z"
			fill="#FFD601" /></svg><svg fill="none" viewBox="0 0 57 55" id="v-purp" xmlns="http://www.w3.org/2000/svg">
		<path
			d="M31.921.078c8.405.675 16.559 4.355 21.12 11.373 4.683 7.203 4.986 16.261 2.092 24.333-2.927 8.166-8.934 15.1-17.225 17.886-8.327 2.798-17.437 1.011-24.785-3.769C5.848 45.17.526 37.631.031 29.031c-.474-8.224 4.548-15.406 10.682-20.975C16.576 2.733 23.99-.558 31.921.078z"
			fill="#FF4D9C" /></svg><svg fill="none" viewBox="0 0 334 356" id="v-white"
		xmlns="http://www.w3.org/2000/svg">
		<path
			d="M207.679 17.039c28.025 10.41 52.353 27.121 73.214 48.466 21.658 22.16 41.781 46.582 49.058 76.643 7.613 31.448 4.154 64.608-7.558 94.781-12.072 31.103-33.016 57.682-59.527 78.055-27.937 21.47-60.015 42.845-95.251 40.891-34.706-1.924-62.323-28.141-88.36-51.073-22.711-20.003-38.265-45.218-51.701-72.285C13.884 204.982-3.397 176.783.58 146.323c3.98-30.469 28.994-52.456 48.22-76.488 19.818-24.773 35.67-56.061 65.84-66.087 30.334-10.08 63.077 2.161 93.038 13.29z"
			fill="#fff" /></svg><svg fill="none" viewBox="0 0 23 25" id="v-yellow-1" xmlns="http://www.w3.org/2000/svg">
		<path
			d="M14.301 23.803c1.93-.73 3.605-1.904 5.042-3.403 1.491-1.556 2.877-3.271 3.378-5.382.524-2.209.286-4.537-.52-6.656-.832-2.184-2.274-4.051-4.1-5.482C16.179 1.373 13.97-.128 11.543.01c-2.39.135-4.291 1.976-6.084 3.586C3.894 5 2.823 6.771 1.898 8.672.955 10.605-.235 12.585.04 14.725s1.997 3.683 3.32 5.37c1.365 1.74 2.457 3.938 4.534 4.642 2.09.708 4.344-.152 6.407-.933z"
			fill="#FFD601" /></svg><svg fill="none" viewBox="0 0 14 14" id="very-good"
		xmlns="http://www.w3.org/2000/svg">
		<path
			d="M2.413 6.62s.372-.042 1.077-1.234c0 0 .016-.02.042-.06.35 1.63 2.033 1.365 2.033 1.365l.161-.632c-1.13.247-1.145-1.094-1.145-1.094l1.733.601c.154-.17.251-.38.293-.607a6.115 6.115 0 01-.19 1.732s1.047-.4 1.771.298c0 0-.069-1.213-.43-2.468.207-.128.65-.317.73.352.102.878 1.277 2.096 2.378.585 0 0-.69.401-1.072-.431-.357-.779-.496-1.8-1.461-1.5.552-.44 1.07-1.152.418-1.814-.868-.883-2.22.171-2.46.37a1.78 1.78 0 00-.506-.231s.559.962.756 2.35a1.623 1.623 0 00-.8-.901c-.486-.252-1.132-.206-1.61.13.101-.84.078-1.966-.27-3.408L2.179.907s1.312 2.63.117 4.377c0 0-1.527-.966-.568-2.918L.75 2.18s-.505.597-.441 1.536c.074 1.085.795 2.553 2.105 2.902zM8.09 2.294c.382.492-.19.933-.686 1.029 0 0-.09-.581-.42-.96 0 0 .724-.561 1.106-.069zM5.578 3.747c.317.113.49.488.43.88L4.74 4.145c.184-.333.529-.507.838-.397zm6.076 1.372h.021c-.188.678-.523 1.065-.941 1.346-.764.514-1.762.226-1.762.226.225.658 2.682 1.89 3.446-.287.763-2.179-.617-3.668-.617-3.668.071.901.043 1.584-.061 2.112-.202.03-1.27.094-.79-2.153l-1.097-.432s-.548 3.082 1.801 2.856zm.793 3.175c-1.302-.329-2.134.093-2.134.093s.783.256.92 1.582c.137 1.325-1.243 2.24-1.243 2.24s1.527.298 2.672-.206c1.146-.503 1.175-1.736 1.175-1.91 0-.176-.088-1.47-1.39-1.799zm-.33 2.795a.627.627 0 01-.068 0c.2-.216.321-.555.306-.933-.019-.46-.236-.845-.532-1.01a.713.713 0 01.213-.045c.46-.02.85.408.872.957.023.55-.331 1.011-.79 1.031zm-1.486-.962c0-.995-.78-1.802-1.74-1.802a1.62 1.62 0 00-.28.024c-.251-.647-.856-1.103-1.563-1.103-.86 0-1.568.674-1.674 1.545-.745.144-1.552.641-1.82 2.046l.895.216s.179-.523.658-.994l.017.054s.118 1.54-1.071 1.726c-1.19.185-1.91-1.187-1.542-2.096.367-.91 1.116-.668 1.116-.668l1.448-1.428-.543-.236C3 6.845 1.028 7.893.91 10.19c-.117 2.296 2.335 3.699 4.038 2.527.923-.634 1.104-1.567 1.077-2.289a1.63 1.63 0 001.242.348c.252.674.884 1.153 1.624 1.153.96 0 1.74-.806 1.74-1.802zm-3.209-.966a.6.6 0 01-.543.35.59.59 0 01-.39-.148c.12-.02.248-.033.383-.036l-.044-.463s-.22-.07-.548-.104c.05-.3.3-.527.6-.527.336 0 .609.286.609.64a.66.66 0 01-.067.288zm1.094 1.491a.602.602 0 01-.457-.214c.322-.253.555-.624.64-1.051a.645.645 0 01.434.618c0 .357-.276.647-.617.647z"
			fill="#fff" /></svg><svg viewBox="0 0 24 24" id="vk" xmlns="http://www.w3.org/2000/svg">
		<g clip-path="url(#bzclip0)">
			<path
				d="M23.786 17.367c-.064-.108-.463-.975-2.384-2.757-2.01-1.866-1.74-1.563.681-4.79 1.475-1.965 2.065-3.165 1.88-3.678-.175-.49-1.26-.36-1.26-.36l-3.606.02s-.267-.035-.467.083c-.193.117-.318.387-.318.387s-.571 1.521-1.333 2.814c-1.607 2.73-2.25 2.873-2.513 2.704-.61-.395-.458-1.587-.458-2.433 0-2.645.4-3.748-.781-4.033-.393-.094-.681-.157-1.685-.168-1.287-.013-2.377.005-2.994.306-.411.201-.728.65-.534.675.238.032.778.146 1.065.536.37.502.357 1.633.357 1.633s.213 3.113-.497 3.5c-.487.266-1.155-.276-2.587-2.753a23.087 23.087 0 01-1.289-2.67s-.106-.26-.297-.4a1.495 1.495 0 00-.555-.224l-3.43.021s-.514.015-.703.239c-.168.2-.013.61-.013.61s2.685 6.281 5.724 9.448c2.789 2.903 5.954 2.712 5.954 2.712h1.434s.434-.048.654-.286c.204-.22.197-.63.197-.63s-.029-1.925.865-2.209c.881-.278 2.012 1.86 3.21 2.684.907.623 1.595.486 1.595.486l3.206-.045s1.677-.103.882-1.422z" />
		</g>
		<defs>
			<clipPath id="bzclip0">
				<path fill="#fff" d="M0 0h24v24H0z" />
			</clipPath>
		</defs>
	</svg><svg viewBox="0 0 233 257" id="yellow-left" xmlns="http://www.w3.org/2000/svg">
		<path
			d="M54.469 10.134C21.461 28.238 8.605 67.159 2.573 104.483-3.3 140.816-.112 178.612 22.57 207.5c24.134 30.738 60.746 51.611 99.622 49.33 38.393-2.253 70.659-28.148 91.657-60.554 19.663-30.347 23.981-67.565 13.891-102.337-9.911-34.154-34-61.404-65.879-76.823C127.849.666 87.603-8.04 54.469 10.134z"
			 /></svg><svg viewBox="0 0 233 257" id="yellow-right"
		xmlns="http://www.w3.org/2000/svg">
		<path
			d="M54.469 10.134C21.461 28.238 8.605 67.159 2.573 104.483-3.3 140.816-.112 178.612 22.57 207.5c24.134 30.738 60.746 51.611 99.622 49.33 38.393-2.253 70.659-28.148 91.657-60.554 19.663-30.347 23.981-67.565 13.891-102.337-9.911-34.154-34-61.404-65.879-76.823C127.849.666 87.603-8.04 54.469 10.134z"
			 /></svg>
</svg>